<?xml version="1.0" encoding="utf-8"?>
<!-- Generator: Adobe Illustrator 16.0.4, SVG Export Plug-In . SVG Version: 6.00 Build 0)  -->
<!DOCTYPE svg PUBLIC "-//W3C//DTD SVG 1.1//EN" "http://www.w3.org/Graphics/SVG/1.1/DTD/svg11.dtd">
<svg version="1.1" id="Layer_1" xmlns="http://www.w3.org/2000/svg" xmlns:xlink="http://www.w3.org/1999/xlink" x="0px" y="0px"
	 width="374px" height="343px" viewBox="0 0 374 343" enable-background="new 0 0 374 343" xml:space="preserve">
<path fill="#2E1820" d="M345.58,166.35c-0.35-2.05-0.9-3.65-1.92-5.32c-0.271-1.92-1.26-3.8-2.38-5.35
	c-1.25-1.7-2.82-2.97-4.46-4.28c-1.561-1.26-2.9-2.68-3.9-4.4c-0.6-2.65-0.5-5.44,0.34-8.03c0.561-1.74,1.5-3.2,2.5-4.73
	c2.75-4.3,3.78-10.08,1.12-14.7c-0.939-1.62-1.149-3.58-2.14-5.22c-1.181-1.96-2.87-3.56-4.8-4.75c-1.07-0.66-2.221-1.24-3.37-1.74
	c-1.271-0.56-2.58-0.92-3.801-1.64c-2.1-1.26-3.829-3.1-5.069-5.2c-0.601-2.65-0.5-5.46,0.34-8.03c0.87-2.62,1.18-5.45,0.65-8.17
	c-0.2-1-0.5-2.03-0.9-2.98c-0.23-0.5-0.48-0.97-0.75-1.44c-0.36-0.6-0.43-1.35-0.66-2c-0.66-1.92-1.729-3.55-3.16-4.98
	c-1.649-1.65-3.5-2.8-5.76-3.52c-1.2-0.38-2.431-0.7-3.67-0.9c-1.22-0.2-2.46-0.16-3.7-0.3c-4.38-0.46-8.33-3.45-10.55-7.18
	c-0.431-1.92-0.3-3.8-0.479-5.72c-0.201-1.9-0.701-3.8-1.561-5.5s-1.2-3.58-2.2-5.25c-0.83-1.4-1.851-2.65-3.13-3.67
	c-2.529-2.04-5.7-2.9-8.9-3.08c-3.859-0.2-7.399,1.57-11.26,1.23c-4.67-0.7-8.779-3.56-11.07-7.65c-0.299-0.8-0.66-1.6-1.069-2.36
	c-0.25-0.68-0.421-1.38-0.671-2.06c-0.569-1.5-1.319-2.95-2.279-4.23c-1.87-2.48-4.471-4.36-7.52-5.1c-3-0.73-6.101-0.6-9.041,0.4
	c-1.76,0.62-3.239,1.6-4.85,2.52c-1.48,0.85-3.119,1.44-4.8,1.73c-5.351,0.7-10.78-1.54-14.07-5.8c-1.72-2.25-3.229-4.43-5.7-5.93
	c-2.34-1.42-4.979-2.22-7.74-2.06c-2.34,0.13-4.579,0.7-6.639,1.83c-2.48,1.35-4.04,3.4-6,5.34c-3.8,3.7-9.33,5.08-14.43,3.62
	c-1.3-0.38-2.58-0.94-3.75-1.65c-1.3-0.8-2.42-1.84-3.7-2.64c-2.3-1.43-4.88-2.27-7.58-2.4c-1.87-0.2-4.08,0.46-5.8,1.2
	c-2.16,0.6-4.23,2.6-5.58,4.3c-1.65,2.08-2.38,4.6-3.8,6.8c-1.4,2.14-3.34,3.92-5.6,5.1c-2.34,1.23-5.03,1.8-7.65,1.7
	c-3.06-0.15-5.65-1.6-8.6-2.17c-4.73-0.9-9.75,0.5-13.03,4.1c-1.68,1.85-2.8,4.13-3.4,6.53c-0.63,2.43-0.65,4.87-1.6,7.2
	c-1.96,4.84-6.35,8.32-11.45,9.27c-2.27,0.42-4.53,0-6.8,0.15c-1.66,0.1-3.34,0.44-4.87,1.07c-4.07,1.7-7,5.06-8.02,9.38
	c-0.32,1.4-0.45,2.85-0.38,4.3c0.06,1.56,0.47,3.05,0.6,4.6c0.2,2.37-0.05,4.74-0.9,6.96c-1.83,4.33-5,7.3-9.35,8.97
	c-1.2,0.46-2.5,0.6-3.72,1c-1.5,0.5-2.96,1.2-4.24,2.1c-2.05,1.45-3.75,3.46-4.72,5.8c-1.04,2.5-1.34,5.18-0.87,7.86
	c0.32,1.73,0.93,3.4,1.75,4.98c0.32,0.6,0.45,1.25,0.68,1.9c0.3,0.84,0.68,1.63,1.03,2.44c1.3,5.56-0.58,11.3-4.8,14.93
	c-2.48,1.94-5.3,3.27-7.4,5.7c-1.1,1.34-2,2.85-2.58,4.48c-0.62,1.74-0.68,3.5-0.7,5.32c-0.03,1.72,0.6,3.55,1.34,5.07
	c0.2,0.43,0.43,0.85,0.67,1.26c0.1,0.5,0.24,1,0.4,1.5c0.3,0.9,0.7,1.8,1.17,2.63c1.54,2.74,4.1,4.57,5.68,7.25
	c1.04,4.56-0.04,9.63-3.16,13.17c-1.64,1.859-3.28,3.8-4.2,6.13c-1,2.55-1.36,5.34-0.73,8.021c0.48,2.1,1.6,3.85,2.2,5.899
	c0.25,2.2,2.35,4.5,3.9,5.931c1.54,1.399,3.34,2.359,5.14,3.369c1.92,1.07,3.6,2.85,4.77,4.67l0.36,0.58c0.56,2.5,0.52,5.24-0.3,7.7
	c-0.72,2.101-1.83,4.06-2.36,6.24c-0.63,2.56-0.63,5.399,0.22,7.899c0.4,1.2,1.16,2.221,1.46,3.43c0.36,1.471,1,2.881,1.85,4.16
	c2.6,3.781,6.3,5.5,10.68,6.48c4.36,0.98,8.1,3.37,10.42,7.301c0.46,2.049,0.4,4.059,0.1,6.129c-0.43,2.94-0.2,6.021,1.02,8.76
	c0.43,0.971,0.86,1.801,1.17,2.801c0.34,1.199,0.86,2.4,1.53,3.449c1.14,1.801,2.8,3.381,4.64,4.451
	c2.38,1.369,5.15,1.959,7.9,1.899c2-0.03,3.93-0.42,5.95-0.17c4.7,0.569,8.93,3.271,11.35,7.33c0.43,1.771,0.58,3.55,1.24,5.28
	c0.32,0.82,0.7,1.6,1.15,2.369c0.2,0.9,0.5,1.801,0.86,2.641c1.35,3.18,3.78,5.9,6.97,7.3c2.97,1.3,6.14,1.58,9.3,0.83
	c2.56-0.601,4.8-1.92,7.4-2.37c5.6-0.92,11.36,1.4,14.65,5.88c0.9,1.351,1.58,2.78,2.4,4.2c1.25,2.18,3,4.13,5.14,5.48
	c3.77,2.359,8.32,2.649,12.42,0.92c3.68-1.561,6.16-4.801,9.97-6.131c4.65-1.6,10.02-0.899,14,2.051c1.5,1.24,2.78,2.729,4.28,3.979
	c2.05,1.72,4.52,2.98,7.18,3.4c5.04,0.829,9.9-1.4,13.08-5.3c1.2-1.461,2.07-3.16,3.35-4.58c1.951-2.16,4.5-3.721,7.32-4.48
	c2.801-0.75,5.82-0.699,8.6,0.18c2.761,0.9,5.07,2.73,7.92,3.461c4.721,1.22,9.9-0.101,13.301-3.621
	c1.8-1.829,3.029-4.129,3.779-6.569c0.5-1.64,0.94-3.229,1.781-4.75c2.68-4.8,7.92-7.88,13.43-7.83c2.1,0,4.08,0.7,6.149,0.899
	c2.7,0.25,5.271-0.199,7.761-1.229c3.619-1.5,6.279-5.069,7.299-8.75c0.921-3.25,0.23-6.55,0.931-9.8c0.94-4.33,3.771-8.1,7.67-10.2
	c1.54-0.83,3.101-1.101,4.72-1.601c2.601-0.469,5.08-0.479,7.551-1.579c4.13-1.841,7.239-5.601,8-10.08
	c0.47-2.72,0.119-5.521-0.78-8.101c-0.5-1.47-0.9-2.93-1.021-4.479c-0.46-5.62,2.301-11.16,7.021-14.149
	c2.26-1.25,4.74-2.031,6.859-3.521c3.03-2.14,5.271-5.37,5.82-9.07c0.23-1.43,0.28-2.829,0.05-4.28
	c-0.14-0.93-0.399-1.85-0.699-2.729c-0.37-1-1.07-1.97-1.33-3c-0.75-2.94-2.5-5.14-4.051-7.681c-1.199-5.299,0.551-10.92,4.521-14.6
	c2.12-2,4.24-3.619,5.64-6.24c1.33-2.529,1.9-5.37,1.5-8.2c0-0.05,0.34,2.04,0,0L345.58,166.35z"/>
<radialGradient id="SVGID_1_" cx="384.5664" cy="-110.4502" r="154.5997" gradientTransform="matrix(1 0 0 -1 -198 56)" gradientUnits="userSpaceOnUse">
	<stop  offset="0" style="stop-color:#915836"/>
	<stop  offset="1" style="stop-color:#653001"/>
</radialGradient>
<path fill="url(#SVGID_1_)" d="M332.38,115.88c-1.649-4.1-6.77-5.45-10.36-7.17c-3.699-1.78-6.52-5.14-8-8.96
	c-0.699-1.88-1.1-3.88-1.14-5.9c-0.03-2.3,0.601-4.4,1.16-6.62c0.57-2.34,0.68-4.8-0.021-7.12c-0.3-0.96-0.699-1.88-1.25-2.73
	c-0.539-0.87-1.439-1.6-1.92-2.45c-1.46-1.58-3.58-2.3-5.6-2.9c-2.57-0.78-5.3-0.45-7.9-1.15c0.061,0,0.101,0.02,0.17,0.03
	l-0.379-0.1c-5.461-1.64-9.9-6.1-11.541-11.55c-1.039-3.48-0.399-7.25-1.629-10.67c-0.521-1.42-1.33-2.75-2.361-3.85
	c-0.449-0.5-0.969-0.97-1.52-1.37c-0.52-0.4-1.359-0.73-1.76-1.12c-2.42-1.3-5.439-1.53-8.13-1.2c-1.63,0.2-3.171,0.77-4.78,1
	c-1.5,0.23-3.1,0.3-4.62,0.03c-5.13-0.94-9.7-4.25-12.14-8.86l-0.641-1.38c-0.619-1.4-0.939-2.9-1.6-4.3
	c-0.62-1.3-1.449-2.53-2.449-3.58c-0.931-0.98-2.031-1.77-3.24-2.34c-0.601-0.27-2.82-1.3-3.28-0.9h-0.07l0.04-0.16
	c-1.949-0.5-4.061-0.17-5.96,0.4c-2.22,0.7-4,2.02-6.06,3.05c-3.92,1.96-8.44,2.1-12.551,0.65c-1.84-0.65-3.57-1.6-5.1-2.83
	c-1.76-1.42-2.96-3.2-4.32-4.97c-2.55-3.33-7.13-5.88-11.4-4.92H192v-0.07c-2.13,0.18-4.27,1.17-5.95,2.46
	c-1.67,1.3-2.92,3-4.47,4.4c-3.06,2.8-7.12,4.4-11.27,4.38c-2.25,0-4.53-0.46-6.6-1.36s-3.8-2.4-5.67-3.63
	c-1.76-1.13-3.77-1.9-5.87-2.1c-2.2-0.22-4.1,0.36-6.13,1c-2.35,0.93-4.24,2.93-5.52,5.06c-1.37,2.28-2.2,4.8-3.95,6.86
	c-3.18,3.73-7.96,5.94-12.86,5.95c-1.53,0-3.05-0.2-4.5-0.6c-1.4-0.37-2.73-1-4.13-1.38c-2.67-0.7-5.56-0.68-8.1,0.47
	c-2.27,1.04-4.16,2.55-5.43,4.7c-1.4,2.36-1.63,5.1-2.17,7.68c-0.74,6.22-5.85,11.4-11.65,13.32c-3.8,1.26-7.8,0.2-11.65,1.1
	c-3.06,0.73-5.6,2.56-7.27,5.2c-1.28,1.6-1.62,4.1-1.66,6.1c-0.05,2.48,0.74,4.86,0.7,7.35c-0.06,4.05-1.6,8.13-4.34,11.13
	c-1.28,1.4-2.8,2.58-4.44,3.52c-1.95,1.1-3.95,1.6-6.1,2.2c-2.2,0.64-4.3,1.78-5.9,3.44c-0.7,0.74-1.28,1.57-1.76,2.46
	c-0.48,0.9-0.73,1.97-1.15,2.84c-0.6,1.97-0.4,4.06,0.2,6c0.27,0.94,0.63,1.84,1.02,2.72l0.6,1.3c0.1,0.22,0.2,0.43,0.32,0.65
	c0.5,1.06,0.12,0.23,0.1,0.22c0.5,0.83,0.72,1.8,0.96,2.7c1.77,6.16-0.62,13.2-5.4,17.3c-2.52,1.96-5.48,3.3-7.45,5.9
	c-0.86,1.14-1.52,2.44-1.9,3.83c-0.14,0.47-0.76,4.1-0.28,4.03h-0.22c-0.2,1.85,0.75,3.76,1.67,5.3c0.52,0.86,1.12,1.66,1.8,2.42
	c0.38,0.44,0.8,0.87,1.2,1.3l0.5,0.52c0.8,0.82,0.22,0.2,0.2,0.2c5.68,5.84,5.32,15.34,0.76,21.68h0.02
	c-1.6,2.17-3.52,3.96-4.5,6.529c-0.5,1.351-0.77,2.78-0.75,4.2c0,0.73,0.1,1.46,0.25,2.171c0.12,0.569,0.47,1.34,0.47,1.819
	c0.42,1.771,1.76,3.271,3.07,4.47c0.76,0.7,1.6,1.301,2.47,1.86c0.74,0.45,1.85,1.17,2.48,1.399c0.8,0.451,1.65,1.121,2.24,1.67
	l0.43,0.4c4.6,4.301,6.55,10.83,4.93,16.971l-0.5,1.47h0.02c-0.5,1.3-1.17,2.53-1.63,3.85c-0.55,1.53-0.82,3.181-0.76,4.8
	c0.04,1.45,0.34,2.881,0.93,4.2c0.27,0.601,0.6,1.181,0.95,1.72c0.4,0.601,3.5,3.631,5.36,4.4c0.92,0.38,1.88,0.68,2.84,0.939
	c0.64,0.17,2.03,0.4,2.28,0.541c7.27,1.479,12.64,8.75,12.9,15.949l-0.02,1.561c-0.17,3.04-0.76,5.8,0.2,8.8
	c0.4,1.2,1,2.351,1.77,3.351c0.38,0.479,0.8,0.93,1.23,1.35c0.42,0.4,1.15,0.8,1.42,1.199c1.8,1.541,4.17,2,6.46,2.061
	c1.22,0.03,2.43-0.04,3.64-0.13l0.86-0.06c3.57-0.5,7.7,1.039,10.6,3.039c2.95,2.051,5.23,5,6.43,8.4l0.43,1.471
	c0.55,2.1,0.78,4.299,1.64,6.319c0.8,1.84,2.12,3.5,3.74,4.7c3.82,2.8,8.48,2.561,12.7,0.9c3.92-1.521,7.85-2.201,11.98-1.101
	c3.72,1,7.06,3.261,9.34,6.37l0.85,1.27c0.76,1.18,1.28,2.5,2.03,3.7c0.78,1.229,1.77,2.36,2.9,3.28c1.95,1.57,4.68,2.641,7.2,2.52
	c3.83,0,7-2.3,9.82-4.6c3.12-2.1,6.43-3.439,10.23-3.46c3.68-0.03,7.32,1.14,10.27,3.33c2.3,1.899,4.149,4.3,6.8,5.7
	c1.43,0.729,3,1.199,4.6,1.32c0.801,0.049,1.601,0.029,2.381-0.101c0.479-0.06,1.35-0.399,1.699-0.3c2-0.471,3.67-1.67,5.061-3.141
	c0.65-0.699,1.25-1.449,1.82-2.229c0.3-0.4,0.56-0.78,0.84-1.17l0.48-0.7c0.399-0.6,0.149-0.18,0.079-0.18
	c1.33-1.4,2.431-2.83,4.021-3.95c1.5-1.07,3.18-1.9,4.949-2.421c3.451-1.039,7.201-0.969,10.601,0.201
	c2.319,0.92,4.399,2.299,6.771,3.1c2.359,0.76,5.069,0.74,7.42-0.07c2.199-0.76,4.22-2.35,5.6-4.22c0.75-1.021,1.3-2.14,1.75-3.319
	c0.33-0.881,1.08-2.621,1.04-3.301c2.54-7.05,9.28-11.9,16.86-11.65l1.549,0.15c1.5,0.18,2.94,0.62,4.44,0.76
	c1.521,0.141,3.07,0.021,4.55-0.369c1.2-0.301,2.371-0.83,3.4-1.53c0.95-0.63,1.7-1.66,2.55-2.25c2.78-2.86,2.671-7.12,2.7-10.8
	c-0.18-3.601,1.57-7.53,3.8-10.301c2.261-2.8,5.4-4.859,8.88-5.8c2.44-0.521,4.98-0.5,7.36-1.26c2.18-0.7,4.22-1.97,5.7-3.75
	c1.5-1.8,2.399-4.101,2.569-6.42c0.2-2.65-0.619-5.2-1.399-7.7c-1.98-7.2,1.06-15.15,7.399-19.12c2.75-1.55,5.86-2.44,8.181-4.649
	c1.02-0.961,1.859-2.101,2.47-3.36c0.3-0.63,0.54-1.28,0.72-1.95c0.181-0.67,0.2-1.54,0.42-2.1c0.74-4.07-1.939-7.25-3.84-10.45
	c-0.56-0.851-1.02-1.761-1.399-2.7l0.1,0.2l-0.2-0.399c-2.239-5.631-1.27-12.32,2.521-17.061c1.859-2.32,4.46-3.92,6.2-6.32
	c0.92-1.28,1.569-2.77,1.899-4.3c0.17-0.8,0.26-1.6,0.25-2.4c0-0.8-0.27-1.72-0.22-2.44c-0.521-1.9-1.4-3.7-2.66-5.22
	c-0.67-0.8-1.44-1.5-2.24-2.16l-1.1-0.86l-0.55-0.43c-1.05-0.83-0.2-0.15-0.221-0.15c-0.72-0.66-1.43-1.35-2.06-2.1l0.1,0.08
	l-0.239-0.26c-4.04-4.96-5.021-11.8-2.46-17.72l0.699-1.36h-0.02c1.35-2.4,2.96-4.43,3.5-7.2c0.57-2.75-1.24-8.08-1.24-8.08
	L332.38,115.88z"/>
<path fill="#C8B68E" d="M185.18,253.65c-37.1,0-69.9-22.271-83.62-56.74c-8.9-22.32-8.55-46.77,0.96-68.84
	c9.5-22.07,27.04-39.12,49.37-48c10.66-4.25,21.84-6.4,33.23-6.4c37.08,0,69.899,22.26,83.62,56.73
	c8.9,22.32,8.55,46.77-0.961,68.84c-9.52,22.07-27.049,39.119-49.379,48c-10.67,4.25-21.851,6.4-33.24,6.4L185.18,253.65z
	 M185.13,78.65c-10.75,0-21.3,2.04-31.4,6.05c-21.08,8.4-37.64,24.5-46.62,45.33c-8.97,20.85-9.3,43.941-0.9,65.031
	c12.95,32.549,43.95,53.6,78.98,53.6c10.75,0,21.3-2.051,31.4-6.061c21.08-8.399,37.641-24.5,46.62-45.34s9.3-43.94,0.899-65.03
	C251.17,99.69,220.16,78.65,185.14,78.65H185.13z"/>
<path fill="#C8B68E" d="M57.88,116.3c-0.43-1.9-1-3.8-1.9-5.5c-0.56-1.07-1.43-2.33-1.45-3.54c0.1-0.74,0.82-1.04,1.45-1.25
	c1.2-0.38,2.47-0.58,3.68-1c1.25-0.4,2.5-0.92,3.67-1.5c3.77-1.9,7.07-4.68,9.62-8.04c2.53-3.34,4.3-7.26,5.1-11.37
	c0.46-2.46,0.57-4.95,0.4-7.43c-0.1-1.18-0.25-2.36-0.5-3.52c-0.13-0.68-0.3-1.7,0.15-2.3c1.34-0.73,3.32-0.18,4.75-0.23
	c4.57-0.15,7.2-1,7.17-1c1.47-0.4,2.94-0.92,4.3-1.58c5.02-2.33,9.3-6.18,12.1-10.92c1.28-2.14,2.27-4.45,2.93-6.84
	c0.35-1.25,0.6-2.53,0.77-3.8c0.12-0.86,0.08-2.24,0.7-2.93c0.48-0.68,1.62-0.35,2.24-0.13c1.55,0.54,3.06,1.12,4.67,1.48
	c2.95,0.66,6,0.85,9,0.54c5.36-0.57,10.5-2.7,14.65-6.16c2.06-1.72,3.87-3.74,5.35-5.98c0.75-1.13,1.4-2.3,2-3.54
	c0.43-0.95,0.76-2.3,1.7-2.9c1.5-0.7,2.7,0.8,3.82,1.6c1.88,1.4,3.93,2.53,6.1,3.4c4.3,1.73,9.02,2.33,13.62,1.76
	c3.84-0.48,7.5-1.77,10.77-3.8c1.88-1.18,3.619-2.57,5.18-4.14c0.76-0.78,1.4-1.7,2.221-2.43c0.639-0.57,1.1-0.6,1.93-0.76
	c0.949,0.38,1.449,1.28,2.02,2.08c0.6,0.87,1.27,1.72,1.98,2.52c1.369,1.54,2.9,2.93,4.58,4.12c3.27,2.34,7.06,3.93,11,4.66
	c3.899,0.73,7.959,0.64,11.8-0.43c2.1-0.58,4.1-1.4,6-2.46c0.899-0.5,1.72-1.16,2.649-1.56c0.9-0.4,1.5-0.16,2.44-0.06
	c0.47,0.46,0.739,1.13,0.92,1.76c0.3,1.07,0.7,2.13,1.14,3.15c0.5,1.05,0.971,2.1,1.561,3.1c1.9,3.2,4.439,6.03,7.449,8.24
	c3.011,2.21,6.461,3.82,10.101,4.68c2.069,0.5,4.181,0.7,6.319,0.63c2.24-0.08,4.74-0.3,6.861-1.1c0.899-0.25,2.35-0.35,3.18,0.17
	c0.899,1.35,0.459,3.43,0.6,4.98c0.17,1.8,0.53,3.6,1.04,5.36c0.899,3.07,2.33,6,4.22,8.57c3.721,5.1,9.62,9.38,15.92,10.54
	c0,0,3.301,0.5,4.9,0.53c0.6,0,1.17,0.14,1.74,0.3c0.619,0.2,1.199,1.1,1.73,1.5c0,0.88-0.371,1.72-0.601,2.55
	c-0.32,1.1-0.56,2.23-0.72,3.37c-0.26,1.77-0.36,3.57-0.28,5.36c0.14,3.36,0.899,6.7,2.239,9.77c1.331,3.08,3.23,5.9,5.57,8.3
	c2.42,2.48,5.16,4.22,8.23,5.75c-0.07-1.07,0.03-2.14,0.32-3.16c-5.75-2.92-10.171-8.08-12.171-14.22
	c-0.999-3.04-1.37-6.26-1.14-9.45c0.141-1.88,0.47-3.73,1.03-5.53c0.5-1.56,0.67-2.92,0.24-4.5c-0.671-2.52-4.38-2.9-5.4-3
	c-1.54-0.15-3.08-0.15-4.63-0.43c-2.28-0.4-4.5-1.3-6.52-2.4c-4.101-2.25-7.5-5.67-9.74-9.76c-1.131-2.08-1.961-4.32-2.461-6.63
	c-0.299-1.37-0.5-2.75-0.56-4.16c-0.06-1.54,0.101-3.1-0.58-4.54c-0.8-1.68-2.06-2-3.72-2.34c-1.15-0.23-2.3-0.04-3.42,0.26
	c-1.57,0.44-3.18,0.74-4.801,0.86c-9.899,0.78-19.34-5.32-23.43-14.2c-0.93-2-1.24-4.44-2.699-6.14c-1.041-1.2-2.7-1.5-4.2-1.35
	c-1.4,0.14-2.56,0.87-3.73,1.6c-1.28,0.78-2.64,1.45-4.05,2c-2.65,1.03-5.43,1.57-8.279,1.56c-5.33-0.03-10.631-1.8-14.881-5.03
	c-2.199-1.67-4.1-3.73-5.63-6.02c-0.64-0.96-1.46-1.83-2.5-2.37c-0.899-0.46-1.63-0.43-2.601-0.32c-2.6,0.3-3.969,2.7-5.699,4.37
	c-1.96,1.9-4.24,3.5-6.72,4.66c-4.7,2.2-10.14,2.75-15.2,1.66c-3.22-0.7-6.3-2.04-9-3.93c-1.93-1.36-3.85-3.33-6.42-2.55
	c-1.66,0.4-2.77,1.86-3.44,3.34c-1.1,2.4-2.3,4.67-4.02,6.72c-3.3,3.92-7.76,6.73-12.73,7.97c-2.84,0.7-5.82,0.92-8.74,0.58
	c-1.4-0.15-2.8-0.43-4.15-0.82c-1.5-0.42-2.92-1.2-4.47-1.4c-1.66-0.2-3.3,0.38-4.23,1.83c-1.28,2-1.08,4.7-1.65,6.96
	c-2.16,8.44-8.96,15.5-17.46,17.76c-1.5,0.4-3.02,0.72-4.57,0.8c-1.65,0.1-3.27-0.06-4.92-0.05v0.02c-1.16,0.04-2.33,0.2-3.3,0.9
	c-1.53,1.12-1.68,3.26-1.4,4.98c0.5,2.95,0.75,5.82,0.36,8.8c-0.66,5.03-2.98,9.8-6.45,13.48c-2.87,3.05-6.5,5.33-10.48,6.6
	c-2.22,0.72-5.43,0.87-6.48,3.37c-0.8,1.85-0.03,3.63,0.82,5.32c0.96,1.94,1.76,3.88,2.24,6c1.5,6.56,0.27,13.6-3.46,19.2
	c-1.6,2.4-3.6,4.38-5.85,6.14c-1.2,0.94-2.6,1.57-3.8,2.5c-0.96,0.74-1.56,1.64-2.02,2.74c0.06,0.35,0.13,0.7,0.16,1.07
	c0.03,0.4-0.12,1.04,0.04,1.4c0.5,1.1,1.24,1.96,2.07,2.83c1.48,1.53,2.86,3.1,3.88,4.98c5.05,8.57,4.45,20-1.82,27.77
	c1.5-0.539,3.04-1.02,4.58-1.43c4.9-8.5,4.86-19.3-0.14-27.8c-0.84-1.6-2-3.12-3.22-4.44c-0.8-0.85-1.77-1.63-2.36-2.64
	c0-0.44-0.03-0.88-0.08-1.3c0.5-0.76,1.3-1.14,2.05-1.58c0.82-0.5,1.64-1.04,2.4-1.63c0.7-0.54,1.4-1.08,2.07-1.67
	c2.44-2.2,4.48-4.83,6-7.74c3.04-5.82,3.88-12.65,2.4-19.04L57.88,116.3z M326.75,202.7c-2.15-2.63-3.6-5.979-4.37-9.24
	c-0.899,0.42-1.899,0.7-2.899,0.8c0.659,2.66,1.699,5.25,3.1,7.6c0.82,1.361,2.33,2.851,2.7,4.381c-0.07,0.64-0.23,0.949-0.8,1.32
	c-0.45,0.279-1.2,0.1-1.7,0.14c-0.74,0.04-1.46,0.17-2.17,0.37c-2.04,0.57-3.9,1.779-5.25,3.43c-0.63,0.76-1.141,1.6-1.53,2.5
	c-0.4,0.95-1.6,1.8-2.25,2.62c-1.45,1.8-2.67,3.75-3.63,5.84c-1.83,4.021-2.671,8.46-2.46,12.87c0.1,1.92,0.359,3.84,0.85,5.699
	c0.37,1.4,1.25,3,1.16,4.44c-0.26,0.58-0.37,0.8-1,1c-0.9,0.32-1.93,0.261-2.87,0.37c-1.8,0.2-3.649,0.6-5.399,1.17
	c-4.34,1.42-8.32,3.92-11.48,7.24c-3,3.15-5.23,7-6.47,11.17c-0.64,2.16-1.04,4.4-1.14,6.65c-0.08,1.479,0.399,3.38-0.23,4.76
	c-1.04,1.22-3.2,0.18-4.54-0.03c-1.53-0.25-3.101-0.399-4.649-0.399c-4.58,0.029-9.131,1.22-13.141,3.43
	c-3.54,1.939-6.63,4.66-9.02,7.9c-1.23,1.67-2.261,3.479-3.101,5.379c-0.399,0.9-0.8,1.86-1.021,2.83
	c-0.129,0.431-0.439,1.041-0.439,1.48c-1.02,0.46-1.95,1.061-2.77,1.8c-1.721-0.77-3.301-1.77-5.101-2.479
	c-1.76-0.7-3.649-1.17-5.53-1.461c-4.14-0.639-8.399-0.319-12.399,0.921c-3.86,1.2-7.431,3.22-10.4,5.93
	c-1.43,1.28-2.78,2.74-3.899,4.3c-0.771,1.08-1.351,2.561-2.461,3.32c-0.199,0.05-0.399,0.1-0.58,0.17
	c-0.119-0.13-0.52-0.2-0.699-0.3c-0.5-0.32-0.92-0.771-1.33-1.22c-0.82-0.871-1.7-1.7-2.62-2.44c-1.66-1.37-3.42-2.569-5.36-3.54
	c-4.729-2.34-10.12-3.279-15.36-2.72c-2.65,0.3-5.27,0.96-7.73,2c-0.62,0.25-1.36,0.229-2.02,0.399c-0.64,0.16-1.28,0.4-1.9,0.67
	c-1.18,0.561-2.27,1.34-3.17,2.301c-0.7,0.74-1.3,2.35-2.37,2.5c-1.08,0.029-1.7-1.94-2.08-2.7c-0.9-1.761-2.06-3.47-3.32-5
	c-5.8-7.06-14.84-10.771-23.93-9.87c-2.04-0.54-4.22-0.42-6.2,0.279c-1.04,0.361-2.02,0.881-2.9,1.541
	c-0.7,0.529-1.66,1.699-2.5,0.6c-0.7-0.9-0.6-2.25-0.68-3.34c-0.08-1.221-0.37-2.42-0.86-3.551c-1-2.279-2.18-4.6-3.58-6.68
	c-0.55,0.84-1.24,1.601-2.1,2.26c1.08,1.701,1.94,3.561,2.8,5.371c0.86,1.799,0.57,3.68,1.03,5.56c0.8,3.26,3.33,4.36,6.38,3.46
	l0.3-0.32c1.87-2.119,5.02-3.02,7.73-2.199c0.2,0.08,0.4,0.1,0.6,0.049c7.26-0.799,14.6,1.701,19.8,6.82c2.4,2.351,3.87,5,5.48,7.9
	c0.64,1.15,1.92,2.8,3.42,2.82c1.4,0.02,2.5-0.4,3.68-1.2l0.17-0.36c1.2-2.42,3.7-4.07,6.37-4.199c0.2,0,0.38-0.041,0.54-0.141
	c9.13-4.05,19.98-2.1,27.2,4.77c1.359,1.301,3.35,4.061,5.619,3.48c0.601-0.16,1.2-0.25,1.721-0.58c1.119-0.699,1.779-1.76,2.5-2.82
	c2.779-4.069,6.3-7.379,10.84-9.399c4.369-1.96,9.279-2.601,14-1.851c2.25,0.36,4.4,1.051,6.47,2c1.82,0.851,3.399,1.871,5.37,2.36
	c1.24-1.38,2.52-2.3,4.26-2.92c0.54-1.5,0.9-3.08,1.48-4.569c0.93-2.381,2.24-4.621,3.869-6.601c3.351-4.12,8-7.08,13.16-8.38
	c2.5-0.631,5.15-0.9,7.73-0.65c0.9,0.1,1.82,0.18,2.721,0.34c1.439,0.271,2.84,0.75,4.319,0.48c3.87-0.7,3.42-4.801,3.46-7.84
	c0.02-1.461,0.26-2.94,0.561-4.36c2.06-9.43,9.56-16.83,18.969-18.86c2.021-0.439,4.341-0.22,6.24-1.07
	c1.601-0.699,2.631-2.149,2.601-3.92c-0.05-1.859-0.95-3.6-1.38-5.399c-0.601-2.47-0.8-5.06-0.601-7.601
	c0.351-5.199,2.4-10.199,5.771-14.18c0.399-0.479,0.82-0.949,1.27-1.399c0.2-0.2,0.63-0.48,0.74-0.771c0.4-1.1,0.95-2.08,1.76-2.92
	c1.8-1.84,4.23-2.48,6.73-2.18c1.28-0.6,3.17-1.7,3.359-3.301c0.051-0.5,0.16-1,0.12-1.479c-0.17-1.22-0.8-2.35-1.529-3.3
	c-0.07-0.1,0.859,1.13,0,0L326.75,202.7z"/>
<path fill="#FFFFFF" d="M97,244.3c-0.2-0.271-0.57-0.34-0.82-0.159c-0.25,0.18-0.3,0.56-0.1,0.83
	c3.23,4.379,6.75,8.529,10.57,12.399l0.1-0.14c0.26-0.24,0.6-0.381,0.93-0.42c-3.86-3.9-7.43-8.07-10.68-12.5V244.3z"/>
<g>
	<path fill="#C8B68E" d="M280,218.2c1.27-1.601,1.9-3.7,1.63-5.729c-0.34-2.361-1.601-3.421-2.88-4.421c-1.3-1-2.6-1.96-3.26-3.979
		c-1.02,1.539-1.471,3.46-1.141,5.38c0.4,2.2,1.57,3.33,2.801,4.399c1.22,1.101,2.5,2.141,2.85,4.36V218.2z M283.3,210.641
		c1.14-1.701,1.62-3.851,1.181-5.851c-0.5-2.33-1.851-3.3-3.201-4.2c-1.369-0.9-2.75-1.75-3.549-3.699
		c-0.9,1.6-1.201,3.539-0.721,5.43c0.561,2.199,1.82,3.199,3.131,4.199c1.299,0.971,2.639,1.92,3.18,4.101L283.3,210.641z
		 M269.67,233.859c0.2-2.369-0.77-3.68-1.8-4.959c-1.021-1.271-2.08-2.5-2.261-4.601c-1.319,1.271-2.199,3.021-2.299,4.96
		c-0.141,2.25,0.75,3.6,1.699,4.93c0.94,1.33,1.94,2.641,1.801,4.881c1.58-1.26,2.699-3.18,2.869-5.221L269.67,233.859z
		 M271.721,232.471c1.5-1.381,2.449-3.381,2.479-5.421c0.03-2.399-1.05-3.63-2.171-4.8c-1.1-1.2-2.27-2.34-2.6-4.43
		c-1.24,1.359-1.979,3.18-1.949,5.13c0.049,2.25,1.039,3.53,2.1,4.8C270.609,228.99,271.71,230.221,271.721,232.471L271.721,232.471
		z M276.141,225.5c1.379-1.5,2.18-3.561,2.06-5.6c-0.16-2.381-1.33-3.53-2.54-4.631c-1.2-1.1-2.45-2.149-2.939-4.199
		c-1.121,1.449-1.721,3.32-1.541,5.26c0.221,2.24,1.301,3.439,2.45,4.6c1.13,1.18,2.32,2.33,2.5,4.57H276.141z M264.63,240.32
		c0.399-2.36-0.479-3.75-1.399-5.1c-0.931-1.33-1.9-2.641-1.9-4.761c-1.43,1.17-2.439,2.851-2.7,4.78
		c-0.3,2.23,0.47,3.65,1.32,5.039c0.829,1.4,1.729,2.801,1.399,5.021C263.05,244.16,264.29,242.33,264.63,240.32z M287.54,216.75
		c-1.649-0.141-3.28-0.2-5.271,1.2c-1.699,1.18-2.899,3-3.47,4.96c2-1.03,3.62-0.74,5.25-0.5c1.63,0.22,3.3,0.4,5.351-1.131
		c1.77-1.319,3-3.43,3.38-5.6c-1.95,1.4-3.601,1.2-5.24,1.08V216.75z M290.7,208.6c-1.65,0-3.3,0.051-5.16,1.601
		c-1.601,1.319-2.681,3.22-3.101,5.22c1.951-1.199,3.57-1.02,5.221-0.9c1.64,0.101,3.3,0.141,5.24-1.539
		c1.67-1.461,2.72-3.65,2.949-5.84c-1.84,1.539-3.5,1.479-5.149,1.469V208.6z M293.24,200.26c-1.65,0.1-3.28,0.301-5.03,1.971
		c-1.5,1.439-2.399,3.399-2.67,5.439c1.83-1.33,3.47-1.3,5.12-1.3c1.64-0.021,3.3-0.101,5.1-1.931c1.561-1.569,2.45-3.83,2.5-6.029
		c-1.72,1.68-3.369,1.74-5,1.859L293.24,200.26z M269.05,239.34c-1.94,0.77-3.53,2.25-4.521,4.04c2.201-0.55,3.701,0.101,5.23,0.7
		c1.53,0.6,3.1,1.15,5.461,0.13c2.029-0.86,3.699-2.64,4.579-4.66c-2.229,0.9-3.78,0.341-5.35-0.149
		C272.88,238.87,271.3,238.43,269.05,239.34z M283.76,224.62c-1.63-0.261-3.25-0.46-5.34,0.78c-1.8,1.06-3.15,2.77-3.85,4.699
		c2.1-0.899,3.67-0.47,5.279-0.1c1.601,0.34,3.24,0.641,5.4-0.73c1.9-1.18,3.26-3.199,3.82-5.319c-2.051,1.25-3.7,0.93-5.301,0.67
		H283.76z M268.971,246.18c-1.531-0.619-3.061-1.199-5.381-0.449c-2,0.619-3.699,1.979-4.83,3.68c2.24-0.37,3.68,0.4,5.17,1.119
		c1.48,0.701,3,1.371,5.43,0.541c2.101-0.721,3.9-2.36,4.921-4.301c-2.3,0.73-3.8,0.051-5.33-0.58L268.971,246.18z M259.1,246.359
		c0.58-2.319-0.199-3.76-1-5.18c-0.82-1.399-1.699-2.8-1.529-4.899c-1.521,1.05-2.65,2.659-3.061,4.56
		c-0.47,2.2,0.2,3.67,0.94,5.141c0.729,1.459,1.5,2.899,1.021,5.1c1.77-1,3.159-2.73,3.649-4.721H259.1z M274,232.55
		c-1.87,0.921-3.34,2.521-4.2,4.38c2.15-0.72,3.7-0.18,5.28,0.301c1.57,0.479,3.18,0.899,5.449-0.301c1.961-1.02,3.5-2.93,4.201-5
		c-2.141,1.07-3.74,0.631-5.34,0.25c-1.621-0.399-3.221-0.699-5.4,0.37H274z M252.63,255c0.899-0.73,1.8-1.5,2.681-2.27
		c-0.301-0.03-0.58-0.141-0.83-0.33c-0.101-0.07-0.17-0.141-0.24-0.221l-0.04-0.05c-0.8,0.7-1.601,1.36-2.4,2.03
		c0.3,0.27,0.56,0.55,0.83,0.85V255z M173.17,271.73c0.3,1.6,0.67,3.199,2.62,4.58c1.66,1.18,3.84,1.58,5.84,1.199
		c-1.82-1.35-2.17-2.96-2.58-4.539c-0.4-1.58-0.84-3.141-2.65-4.5c-1.55-1.171-3.45-1.631-5.28-1.441
		C172.62,268.529,172.87,270.13,173.17,271.73z M136.6,265.4c1.1,1.72,2.97,2.899,4.97,3.279c-1.18-1.9-0.9-3.539-0.7-5.16
		c0.23-1.619,0.4-3.229-0.77-5.16c-1-1.67-2.6-2.819-4.38-3.319c0.83,1.95,0.46,3.53,0.14,5.13c-0.3,1.6-0.57,3.23,0.72,5.23H136.6z
		 M129.4,261.471c0.98,1.799,2.76,3.119,4.72,3.649c-1.03-2-0.63-3.601-0.3-5.2c0.35-1.6,0.63-3.2-0.4-5.199
		c-0.86-1.75-2.37-3-4.1-3.65c0.68,2,0.2,3.56-0.24,5.13C128.65,257.77,128.28,259.38,129.4,261.471L129.4,261.471z M122.53,257
		c0.84,1.87,2.52,3.33,4.43,4c-0.87-2.07-0.36-3.63,0.1-5.2c0.46-1.569,0.86-3.14,0-5.22c-0.74-1.801-2.14-3.18-3.82-3.939
		c0.52,2.049-0.08,3.56-0.63,5.1c-0.54,1.529-1.04,3.1-0.07,5.27L122.53,257z M173.4,276.971c-1.7-1.471-1.94-3.101-2.22-4.701
		c-0.27-1.619-0.6-3.199-2.3-4.699c-1.46-1.28-3.32-1.9-5.16-1.84c1.37,1.6,1.5,3.229,1.68,4.85c0.18,1.62,0.42,3.25,2.26,4.77
		c1.58,1.301,3.72,1.86,5.73,1.62L173.4,276.971z M165.22,275.82c-1.58-1.6-1.7-3.24-1.84-4.86c-0.15-1.63-0.37-3.239-1.93-4.851
		c-1.37-1.379-3.18-2.139-5-2.219c1.24,1.699,1.23,3.33,1.3,4.959c0.05,1.631,0.16,3.271,1.87,4.92c1.48,1.431,3.57,2.15,5.6,2.061
		V275.82z M144.04,268.779c1.24,1.621,3.2,2.66,5.22,2.9c-1.32-1.83-1.17-3.47-1.08-5.1c0.1-1.641,0.14-3.26-1.17-5.1
		c-1.12-1.58-2.8-2.601-4.6-2.971c0.98,1.9,0.73,3.5,0.53,5.12c-0.2,1.601-0.32,3.25,1.1,5.16V268.779z M157.16,274.05
		c-1.45-1.7-1.43-3.36-1.47-5c-0.03-1.63-0.12-3.239-1.56-4.97c-1.25-1.5-3-2.4-4.82-2.62c1.1,1.8,0.98,3.42,0.9,5.06
		c-0.05,1.621-0.06,3.271,1.52,5.051c1.36,1.529,3.4,2.399,5.42,2.479H157.16z M174.86,282.6c0.65-1.5,1.24-3.029,3.18-4.199
		c-1.97-0.561-4.14-0.471-6.06,0.35c-2.23,0.971-3.02,2.4-3.76,3.87c-0.76,1.47-1.45,2.97-3.66,3.92c2.05,0.8,4.5,0.86,6.54,0.03
		c2.38-0.95,3.1-2.461,3.76-3.961V282.6z M180.36,279.38c-2.15,1.13-2.83,2.601-3.46,4.13c-0.63,1.54-1.2,3.1-3.34,4.2
		c2.1,0.64,4.54,0.521,6.52-0.46c2.3-1.141,2.9-2.7,3.44-4.25c0.53-1.57,1-3.13,2.85-4.45c-2-0.399-4.17-0.149-6,0.82L180.36,279.38
		z M169.74,277.6c-1.93-0.699-4.1-0.8-6.07-0.1c-2.3,0.779-3.2,2.15-4.05,3.561c-0.85,1.399-1.66,2.859-3.94,3.619
		c1.98,0.961,4.4,1.2,6.52,0.541c2.44-0.771,3.27-2.201,4.05-3.671c0.76-1.45,1.47-2.93,3.5-3.95H169.74z M161.53,276.17
		c-1.86-0.85-4.03-1.1-6.04-0.57c-2.36,0.601-3.36,1.9-4.32,3.24c-0.97,1.34-1.9,2.721-4.22,3.301c1.9,1.1,4.3,1.549,6.46,1.049
		c2.5-0.6,3.44-1.959,4.32-3.35c0.88-1.4,1.7-2.82,3.8-3.68V276.17z M186.98,273.061c-0.52-1.561-1.1-3.07-3-4.281
		c-1.63-1.049-3.57-1.369-5.38-1.039c1.6,1.38,1.98,2.96,2.4,4.539c0.43,1.57,0.92,3.141,2.97,4.361
		c1.75,1.049,3.959,1.279,5.92,0.729c-1.92-1.2-2.4-2.771-2.92-4.3L186.98,273.061z M149.4,277.5c0.98-1.34,1.9-2.7,4.05-3.38
		c-1.8-1-3.93-1.399-5.98-1.04c-2.38,0.43-3.48,1.641-4.54,2.9c-1.07,1.26-2.1,2.569-4.46,2.979c1.82,1.24,4.17,1.86,6.36,1.53
		c2.53-0.4,3.58-1.7,4.56-3L149.4,277.5z M195.8,276.82c-1.399,0.15-2.84,0.3-4.271,0.4v0.369c-0.049,0.301-0.18,0.58-0.359,0.82
		c1.7-0.1,3.359-0.27,5.04-0.46c-0.14-0.37-0.28-0.75-0.38-1.14L195.8,276.82z M125.77,266.7c1.26-1.07,2.47-2.171,4.72-2.36
		c-1.53-1.369-3.52-2.26-5.6-2.359c-2.42-0.121-3.76,0.8-5.08,1.8s-2.6,2.03-5,1.899c1.48,1.62,3.63,2.75,5.84,2.92
		c2.55,0.2,3.86-0.84,5.1-1.899H125.77z M141.25,274.5c1.08-1.25,2.1-2.52,4.3-3.061c-1.7-1.119-3.8-1.699-5.88-1.479
		c-2.4,0.24-3.6,1.36-4.75,2.54c-1.16,1.18-2.28,2.4-4.67,2.63c1.72,1.38,4,2.17,6.22,2C139.02,276.95,140.17,275.73,141.25,274.5z
		 M133.36,270.9c1.17-1.17,2.3-2.36,4.53-2.721c-1.63-1.26-3.68-2-5.76-1.93c-2.43,0.061-3.7,1.1-4.94,2.18
		c-1.24,1.08-2.45,2.221-4.84,2.271c1.6,1.5,3.82,2.47,6.04,2.47c2.56,0,3.8-1.13,4.96-2.279L133.36,270.9z"/>
</g>
<g>
	<path fill="#FFFFFF" d="M212,275.16l2.25,6.17l-13.15,5.23c-0.729-1.83-1.149-3.301-1.26-4.431c-0.1-1.12-0.02-2.28,0.26-3.5
		c0.301-1.2,0.801-2.6,1.551-4.2c0.979-2.1,1.58-3.6,1.8-4.479c0.229-0.9,0.17-1.761-0.181-2.63c-0.26-0.641-0.649-1.1-1.199-1.37
		c-0.53-0.271-1.08-0.3-1.641-0.07c-0.82,0.33-1.3,0.899-1.399,1.761c-0.101,0.84,0.1,2.06,0.67,3.64l-3.841,1.319
		c-0.799-2.029-1.1-3.67-0.93-4.93c0.18-1.26,0.7-2.33,1.521-3.199c0.83-0.861,1.84-1.531,3.03-2
		c1.949-0.781,3.699-0.841,5.27-0.181c1.561,0.66,2.66,1.8,3.32,3.46c0.35,0.9,0.5,1.77,0.47,2.66c-0.03,0.89-0.22,1.68-0.54,2.4
		c-0.32,0.72-0.93,1.799-1.859,3.279c-1.4,2.221-2.17,3.86-2.34,4.9c-0.171,1.05-0.171,1.9,0,2.6l6-2.4l-1.101-2.729L212,275.16
		L212,275.16z M221.75,278.66c-2.3,0.9-4.4,0.68-6.35-0.7c-1.95-1.37-3.601-3.8-5-7.3c-1.371-3.45-1.84-6.34-1.42-8.7
		c0.43-2.351,1.799-4,4.17-4.931c2.34-0.93,4.47-0.699,6.399,0.701c1.931,1.42,3.58,3.85,4.95,7.299c1.4,3.5,1.859,6.441,1.4,8.771
		C225.4,276.13,224.029,277.75,221.75,278.66L221.75,278.66z M220.37,275.26c1.05-0.42,1.37-1.539,0.97-3.359s-0.9-3.5-1.52-5
		c-0.971-2.44-1.881-4.2-2.75-5.32c-0.87-1.1-1.73-1.5-2.57-1.15c-0.859,0.34-1.2,1.221-1.07,2.65c0.15,1.43,0.7,3.33,1.65,5.72
		c0.97,2.431,1.88,4.2,2.75,5.3C218.689,275.2,219.529,275.6,220.37,275.26L220.37,275.26z M229.8,275.141l-1.34-3.36l2.83-1.13
		l-5.7-14.26l-3,1.18l-1.34-3.36l7.529-3l7,17.63l2.701-1.061l1.33,3.351l-10.031,4L229.8,275.141z M250.82,262.88l1.34,3.37
		l-9.9,3.939l-1.34-3.379l2.6-1.031c-0.729-2.1-1.14-4.779-1.229-8.049c-0.101-3.271,0.12-6.061,0.67-8.371l-5.271,2.101l1.17,2.94
		l-3.299,1.3l-2.461-6.2l12.83-5.12l1.03,2.58c-0.53,1.67-0.7,4.3-0.5,7.899c0.2,3.601,0.8,6.601,1.761,9.031l2.6-1.021V262.88z"/>
</g>
<path fill="none" d="M48.56,211.67c-5.42,2.2-9.55,5.221-12.27,9.02c-1.92,2.66-3.38,5.48-4.38,8.42c-0.22,3.24-0.06,6.5,0.52,9.74
	c0.86,4.801,2.2,9.101,4,12.7l0.15,0.271c0.26-0.83,0.64-1.65,1.12-2.44c1.62-2.64,3.85-4.56,6.63-5.75
	c0.62-0.271,1.26-0.5,1.9-0.659c1.8-0.48,3.63-0.561,5.5-0.271c-0.03-1.101-0.06-2.181-0.07-3.261
	c-0.04-5.319,0.33-10.34,1.1-14.899c0.3-1.74,0.7-3.399,1.16-5c0.15-1.271,0.32-2.521,0.53-3.729c0.38-2.201,0.9-4.301,1.55-6.271
	c-0.98,0.14-2,0.34-3.04,0.62c-1.4,0.35-2.88,0.85-4.42,1.47L48.56,211.67z M79.93,253.93c-0.8-0.9-1.72-1.43-2.9-1.66
	c0.06,2.631,0.1,5.25,0.02,7.801c-0.1,3.529-0.36,6.97-0.78,10.22c-0.2,1.5-0.46,2.97-0.77,4.399c0.22,0.03,0.44,0.041,0.66,0.051
	c0.75,0.039,1.4-0.021,1.98-0.17c0.8-0.2,1.5-0.601,2.2-1.221c1.54-1.399,2.72-3.199,3.6-5.439c0.08-2.84-0.2-5.54-0.9-8.02
	c-0.68-2.421-1.7-4.371-3.1-5.971L79.93,253.93z M76.35,228.6c0.43-0.16,0.93-0.439,1.4-1c0-0.07,0-0.149-0.02-0.229
	c-0.3-2.64-1.18-5.34-2.57-8.03c0.03,1.2,0.08,2.43,0.16,3.7c0.1,1.88,0.23,3.819,0.38,5.8l0.65-0.23V228.6z M346.98,141.54
	c0.18-0.37,0.399-0.72,0.67-1.03l0.119-1c0.15-1.44,0.261-2.63,0.33-3.6l-1.569,0.65l0.45,5V141.54z M232,141.08
	c-3.029,0.8-5.83,1.98-8.32,3.46c-2.24,1.34-4.07,3.17-5.58,5.6c-0.899,1.44-1.64,2.92-2.22,4.44c-0.13,2.36-0.06,4.72,0.261,7.04
	c0.479,3.54,1.399,6.94,2.699,10.1c0.76,1.82,1.57,3.48,2.43,4.98l0.07-0.261c0.551-1.969,1.52-3.729,2.881-5.239
	c1.35-1.48,3.029-2.63,4.979-3.42c0.569-0.23,1.159-0.42,1.739-0.58c1.4-0.36,2.801-0.5,4.221-0.4c0.5,0.02,1,0.1,1.5,0.2
	l-0.02-1.12c-0.061-5.25,0.27-10.23,1-14.82c0.319-2.04,0.75-4,1.299-5.85c0.101-0.96,0.221-1.92,0.371-2.86
	c0.16-0.97,0.35-1.93,0.56-2.87c-2.64,0.4-5.181,0.9-7.58,1.54l-0.3,0.08L232,141.08z M96.83,229.359
	c-0.4,1.73-0.96,3.42-1.65,5.061c0.27,0.17,0.54,0.33,0.8,0.52c0.56,0.4,1.1,0.83,1.64,1.271l-0.7-7.351
	c-0.02,0.16-0.05,0.341-0.1,0.5H96.83z"/>
<path fill="#2E1820" d="M359.6,134.06c-0.05-1.58-0.859-3.04-2.199-3.9c-1.141-0.76-2.551-1-3.86-0.64c-0.2,0.05-0.4,0.12-0.58,0.2
	l-0.85,0.33c-0.051-0.3-0.13-0.58-0.24-0.86l-1-2.45c2.479-1,3.67-3.8,2.68-6.28l-2-4.95c-0.479-1.2-1.42-2.14-2.6-2.64
	c-0.98-0.42-2.08-0.5-3.101-0.23c-0.199,0.06-0.399,0.12-0.6,0.2l-0.9,0.36l-0.1-1.17c-0.26-2.4-0.46-4.52-0.63-6.4l-0.57-6.2
	c-0.14-1.5-1-2.87-2.3-3.67c-1.12-0.68-2.47-0.87-3.73-0.54c-0.199,0.05-0.399,0.1-0.579,0.2l-9.9,4c-1.98,0.8-3.2,2.78-3,4.9
	l0.37,4.34c-1.4,0.97-2.22,2.62-2.07,4.37l0.8,8.97c-1.04,0.47-1.87,1.3-2.37,2.3c-1.949-0.18-4,0-6.17,0.56
	c-0.949,0.25-1.93,0.58-2.899,0.97c-5.101,2.06-8.78,4.93-10.96,8.54c-0.631,1.04-1.141,2.1-1.561,3.15
	c-0.6-0.5-1.27-0.92-1.979-1.3c-2.46-1.3-5.341-1.57-8.33-0.78c-0.649,0.17-1.3,0.4-1.979,0.66c-4.98,2-8.951,5.1-11.801,9.2
	c-2.699,3.83-4.55,8.05-5.55,12.55c-0.351,1.56-0.601,3.15-0.729,4.73c-0.25,0.02-0.5,0.05-0.75,0.12c-0.201,0.05-0.4,0.1-0.58,0.2
	l-5.601,2.25c-0.2-2.98-0.399-5.94-0.62-8.86c-0.4-5.02-0.63-9.7-0.68-13.95c-0.03-1.84,0.02-3.57,0.12-5.2
	c0.14-0.3,0.28-0.55,0.44-0.8c0.899-0.2,1.77-0.4,2.64-0.63c2.079-0.55,4.13-1.2,6.1-1.9c3.58-1.3,6.88-3.16,9.8-5.53
	c2.961-2.42,5.5-5.5,7.561-9.17c2.029-3.62,3.5-8.1,4.34-13.28c0.1-0.55,0.07-1.08-0.02-1.6c0.699-2.2,1.279-4.57,1.699-7.12
	c0.4-2.44-1.1-4.78-3.479-5.44c-0.851-0.24-1.7-0.23-2.5-0.02c-1.46,0.38-2.7,1.42-3.28,2.9c-1.08,2.75-2.7,4.74-4.98,6.08
	c-2.799,1.65-6.17,3-10.069,4.04c-4.101,1.07-8.57,2-13.341,2.73c-4.27,0.67-8.629,1.58-12.949,2.72c-0.9,0.24-1.78,0.48-2.68,0.74
	c-5.371,1.52-10.65,3.68-15.7,6.4c-2.48,1.33-4.841,2.94-7.08,4.78c3.8-7.17-0.3-17.57-7.92-20.97c1.329-11.1-6.56-15.76-17.98-14.1
	c-3.63-9.82-16.94-10.45-23.5-5.63c-6.77-7.47-25.55-10.8-30.18,2.5c-8.5,0.88-15.3,5.34-13.4,13.8c-4.53,5.9-2.9,11.57,1.38,16.75
	c-1.12,3.5-0.7,6.6,0.74,8.9c-0.98-0.02-1.95,0-2.92,0.06c-4.5,0.35-8.93,2.03-9.72,5.94c-2.95,14.55-3.54,29.66,2.53,43.101
	c3.82,8.449,14.1,10,24.96,9.399c0.25,4.271,0.53,8.55,0.85,12.83c-0.42,0.14-0.83,0.28-1.26,0.45c-4.98,2-8.95,5.1-11.8,9.199
	c-0.96,1.36-1.8,2.771-2.55,4.23c-0.25-0.641-0.53-1.54-0.8-2.8c-0.43-1.86-1.9-3.3-3.8-3.681c-0.73-0.14-1.46-0.1-2.15,0.07
	c-1.1,0.301-2.08,0.96-2.75,1.94l-1.85,2.68c-0.9-0.3-1.87-0.34-2.8-0.101c-0.2,0.061-0.38,0.121-0.57,0.201l-10.02,4.039
	c-0.7,0.28-1.3,0.73-1.77,1.26c0-0.799-0.04-1.6-0.1-2.379c-0.3-3.761-1.28-7.34-2.87-10.65c-1.6-3.34-3.84-6.32-6.65-8.86
	c-2.88-2.6-6.46-4.53-10.64-5.729c-4.03-1.131-8.72-1.471-13.95-1c-2.55,0.24-5.28,0.74-8.1,1.5c-2.83,0.729-5.83,1.74-8.93,3
	c-6.67,2.699-12.43,6.22-17.1,10.5c-4.63,4.22-8.44,8.93-11.32,14c-2.88,5.06-4.93,10.42-6.1,15.93c-0.43,1.98-0.76,3.93-0.98,5.87
	c-0.26,0.94-0.5,1.899-0.7,2.851c-1.17,5.449-1.6,10.77-1.3,15.799c0.32,5.101,1.37,9.94,3.1,14.371c1.82,4.6,4.3,8.469,7.4,11.469
	c3.25,3.171,7.18,5.24,11.67,6.16c0.25,0.051,0.5,0.101,0.76,0.131v0.05c0,0.101,0.02,0.2,0.04,0.3l-0.16,0.26
	c-1.42,2.44-1.95,5.18-1.55,8.16c0.34,3.83,1.33,6.83,3.02,9.17c1.7,2.381,3.87,4.1,6.42,5.08c2.4,0.939,5,1.26,7.77,0.971
	c1.33-0.141,2.65-0.4,3.94-0.721c1.1-0.3,2.17-0.65,3.23-1.08c3.43-1.38,6.34-3.3,8.67-5.75c1.27-1.33,2.43-2.8,3.47-4.369
	c1.73,0.399,3.5,0.659,5.27,0.779h0.1c3.9,0.2,7.54-0.15,10.78-1c0.73-0.199,1.44-0.42,2.14-0.66c3.77-1.33,7.08-3.199,9.85-5.6
	s5.02-5.301,6.67-8.58c1-2,1.77-4.08,2.33-6.2c0.47,0,0.93-0.021,1.4-0.14c0.2-0.051,0.38-0.1,0.57-0.2l10.02-4.04
	c1.98-0.8,3.2-2.8,3-4.93l-0.4-4.301c1.4-0.979,2.24-2.649,2.07-4.43l-1.7-17.85l0.4-0.061c0.7,4.17,1.94,7.881,3.73,11.051
	c2.12,3.75,5.02,6.52,8.6,8.25c3.24,1.549,6.8,1.84,10.6,0.84c0.83-0.23,1.68-0.521,2.54-0.86c2.34-0.95,4.46-2.25,6.3-3.86
	c1.74-1.52,3.28-3.229,4.58-5.1c0.5-0.7,0.97-1.46,1.42-2.221l0.27,0.261c1.77,1.569,3.88,2.44,6.07,2.5
	c1.22,0.04,2.42-0.101,3.56-0.399c0.5-0.131,0.98-0.301,1.45-0.48c2.66-1.07,4.78-3,6.15-5.58c2.04,0.73,4.43,0.74,7.12,0.04
	c0.88-0.24,1.83-0.55,2.8-0.95c3.27-1.32,5.959-3.561,7.98-6.65c1.771-2.72,3.101-5.869,3.94-9.369c0.529-2.18,0.9-4.471,1.15-6.84
	c0.18-0.631,0.359-1.24,0.52-1.881c0.779-3.27,1.26-6.77,1.42-10.42c0.02-0.449,0-0.9,0.02-1.34c0.03-0.04,0.051-0.08,0.08-0.1
	c0.7-0.16,1.4-0.301,2.12-0.471c1.88-0.439,3.399-1.029,4.67-1.74c2.521,1.951,5.37,3.36,8.53,4.17c0.6,0.15,1.199,0.271,1.82,0.371
	c0,0.43,0.029,0.859,0.08,1.3c0,0.14,0.039,0.27,0.05,0.399c0,0.051-0.04,0.08-0.06,0.12c-1.4,2.4-1.971,5.14-1.66,8.2
	c0.43,3.8,1.449,6.8,3.129,9.12c1.721,2.38,3.881,4.101,6.431,5.08c2.38,0.92,4.97,1.26,7.7,0.979c1.32-0.13,2.64-0.369,3.93-0.72
	c1.07-0.28,2.15-0.63,3.2-1.06c4.399-1.771,8-4.5,10.739-8.08c2.541-3.34,4.5-7.26,5.801-11.631c0.92-3.08,1.58-6.399,1.98-9.879
	c1.049-3.86,1.739-8.021,2-12.431c0.069-0.97,0.1-1.96,0.129-2.94l6.16-2.479c0.7,2.479,1.631,4.771,2.801,6.83
	c2.119,3.75,5.02,6.521,8.6,8.25c3.24,1.56,6.8,1.84,10.6,0.84c0.82-0.229,1.68-0.521,2.54-0.86c4.23-1.699,7.65-4.399,10.171-7.949
	c0.829-1.18,1.6-2.381,2.279-3.6c0.9,0.479,1.88,0.899,2.93,1.25c3.131,1.06,6.33,1.18,9.5,0.34c0.73-0.201,1.46-0.451,2.181-0.74
	c4.979-2,8.7-4.95,11.069-8.73c0.801-1.279,1.431-2.6,1.92-3.9c3.15,2.86,7.04,3.851,11.101,2.781c0.6-0.15,1.2-0.351,1.78-0.58
	c3.199-1.301,5.739-3.871,7.5-7.621c1.399-2.95,2.5-6.25,3.27-9.83c0.44-2,0.78-4.05,1.04-6.1c0.23-0.85,0.44-1.73,0.64-2.62
	c0.75-3.45,1.24-6.98,1.471-10.5c0.22-3.44,0.3-6.2,0.239-8.38L359.6,134.06z M54.46,215.84c-0.2,1.2-0.38,2.46-0.53,3.73
	c-0.47,1.6-0.85,3.26-1.15,5c-0.8,4.56-1.16,9.58-1.12,14.899c0,1.08,0.04,2.171,0.07,3.261c-1.87-0.301-3.7-0.201-5.5,0.26
	c-0.64,0.16-1.28,0.38-1.9,0.65c-2.78,1.18-5.02,3.1-6.63,5.739c-0.48,0.78-0.86,1.601-1.14,2.431c-0.04-0.101-0.1-0.181-0.13-0.271
	c-1.8-3.601-3.15-7.899-4-12.7c-0.6-3.24-0.76-6.5-0.53-9.74c1-2.939,2.46-5.77,4.37-8.439c2.7-3.801,6.84-6.82,12.26-9
	c1.53-0.631,3.02-1.131,4.42-1.5c1.05-0.27,2.06-0.48,3.04-0.6c-0.65,1.969-1.17,4.06-1.55,6.26L54.46,215.84z M75.16,219.34
	c1.38,2.7,2.25,5.4,2.56,8.03c0,0.08,0,0.159,0.02,0.239c-0.47,0.561-0.97,0.841-1.4,1c-0.2,0.101-0.4,0.16-0.65,0.24
	c-0.14-1.979-0.27-3.92-0.38-5.8c-0.08-1.271-0.13-2.5-0.16-3.7L75.16,219.34z M80.32,273.359c-0.68,0.601-1.4,1-2.2,1.221
	c-0.57,0.15-1.22,0.199-1.97,0.17c-0.22,0-0.44-0.029-0.66-0.05c0.3-1.431,0.56-2.9,0.77-4.421c0.42-3.239,0.7-6.68,0.78-10.199
	c0.07-2.561,0.04-5.18-0.03-7.801c1.2,0.221,2.1,0.75,2.9,1.641c1.42,1.6,2.44,3.561,3.12,5.98c0.7,2.479,0.98,5.18,0.9,8.02
	c-0.88,2.25-2.06,4.03-3.6,5.439H80.32z M95.96,234.939c-0.25-0.199-0.52-0.35-0.8-0.52c0.7-1.641,1.25-3.33,1.66-5.061l0.1-0.5
	l0.7,7.341C97.08,235.77,96.52,235.34,95.96,234.939z M130.61,166.4c-2.34-1.54-4.2-4.6-4.98-7.85c-1.42-6-1.7-12.28-1.08-18.44
	c0.17-1.64,2.67-3.06,5.56-3.03c3.18,0.03,6.05,1.24,8.83,2.58c0.33,9.7,0.66,19.37,1.1,29.05c-2.82,0.32-5.92,0.02-9.43-2.3V166.4z
	 M239.311,142.34c-0.16,0.94-0.281,1.9-0.4,2.87c-0.53,1.87-0.96,3.82-1.301,5.86c-0.699,4.6-1.049,9.57-0.979,14.82l0.021,1.1
	c-0.5-0.1-1-0.16-1.5-0.2c-1.4-0.1-2.83,0.06-4.23,0.42c-0.58,0.16-1.16,0.35-1.73,0.58c-1.959,0.8-3.629,1.94-4.979,3.42
	c-1.36,1.5-2.33,3.271-2.88,5.24l-0.07,0.26c-0.869-1.5-1.68-3.16-2.42-4.97c-1.33-3.17-2.24-6.57-2.699-10.1
	c-0.33-2.33-0.4-4.7-0.281-7.05c0.601-1.53,1.32-3,2.23-4.43c1.5-2.44,3.34-4.27,5.58-5.6c2.5-1.5,5.301-2.66,8.301-3.47l0.299-0.08
	c2.4-0.63,4.94-1.14,7.57-1.53c-0.199,0.94-0.4,1.9-0.54,2.87L239.311,142.34z M347.76,139.51l-0.12,1
	c-0.27,0.32-0.5,0.67-0.67,1.04l-0.45-5l1.57-0.63c-0.07,0.97-0.18,2.16-0.33,3.6V139.51z"/>
<path fill="#FFFFFF" d="M55.17,289.359c1.98-0.799,3.35-2.539,4.1-5.239c0.74-2.7,1.13-6,1.16-9.94
	c0.03-3.939-0.14-8.35-0.54-13.229s-0.77-9.87-1.13-14.98c-0.35-5.1-0.55-10.2-0.6-15.26c-0.03-5.05,0.32-9.74,1.06-14.05
	c0.74-4.311,2.03-8.07,3.9-11.301c1.84-3.219,4.47-5.6,7.86-7.149c-2.8-1.431-6.1-2.2-9.86-2.36c-3.78-0.14-8,0.74-12.7,2.641
	c-6.32,2.55-11.12,6.1-14.4,10.67s-5.4,9.48-6.34,14.73c-0.95,5.25-0.96,10.529,0,15.819c0.93,5.3,2.4,9.97,4.43,14.021
	c2.02,4.049,4.38,7.149,7.1,9.299c2.7,2.16,5.37,2.701,8,1.631c1.18-0.471,1.97-1.28,2.36-2.42c0.38-1.141,0.35-2.221-0.1-3.23
	c-0.45-1-1.34-1.74-2.67-2.199c-1.33-0.431-3.14-0.201-5.4,0.729c-0.8-1.979-0.67-3.851,0.4-5.62c1.1-1.75,2.56-3.02,4.42-3.8
	c1.85-0.8,3.8-0.931,5.8-0.37c2.03,0.55,3.57,2.141,4.63,4.8c0.7,1.75,0.95,3.5,0.73,5.261c-0.22,1.75-0.8,3.399-1.7,4.969
	c-0.9,1.561-2.08,2.98-3.54,4.25c-1.45,1.271-3.05,2.261-4.8,2.971c-4.35,1.74-8.3,2.25-11.88,1.52
	c-3.58-0.729-6.68-2.369-9.28-4.899c-2.6-2.54-4.7-5.8-6.25-9.771c-1.56-3.979-2.5-8.279-2.78-12.899c-0.28-4.62,0.1-9.46,1.2-14.5
	c1.07-5.05,2.93-9.9,5.58-14.55c2.64-4.66,6.1-8.94,10.37-12.84c4.27-3.9,9.5-7.101,15.66-9.601c5.8-2.33,11.02-3.7,15.67-4.14
	c4.65-0.42,8.72-0.141,12.2,0.84c3.46,1,6.37,2.55,8.73,4.67c2.35,2.13,4.2,4.58,5.53,7.37c1.35,2.8,2.15,5.771,2.4,8.96
	c0.27,3.18,0.04,6.3-0.7,9.369c-0.7,3.07-1.93,5.931-3.63,8.58c-1.7,2.66-3.85,4.9-6.45,6.701c3.66,0.83,6.8,2.199,9.45,4.069
	c2.64,1.88,4.77,4.101,6.4,6.64c1.62,2.551,2.74,5.32,3.35,8.32c0.6,3,0.72,5.96,0.33,8.9c-0.4,2.93-1.28,5.77-2.65,8.5
	c-1.38,2.73-3.2,5.1-5.52,7.1c-2.3,2-5.08,3.551-8.3,4.68c-3.2,1.131-6.9,1.601-11.08,1.4c-2.72-0.18-5.33-0.74-7.85-1.7
	c-1.27,2.57-2.84,4.82-4.7,6.771c-1.86,1.949-4.18,3.5-6.97,4.6c-1.9,0.78-3.87,1.27-5.87,1.5c-2,0.2-3.83-0.02-5.5-0.67
	c-1.68-0.65-3.1-1.779-4.26-3.4c-1.17-1.619-1.9-3.92-2.14-6.879c-0.27-1.94,0.03-3.671,0.92-5.181c0.88-1.5,2-2.729,3.38-3.67
	c1.37-0.94,2.9-1.57,4.55-1.899c1.66-0.33,3.14-0.261,4.43,0.199c1.3,0.46,2.3,1.33,3,2.63c0.68,1.3,0.76,3.08,0.22,5.351
	c-1.28-0.42-2.34-0.461-3.18-0.12c-0.85,0.34-1.5,0.88-1.97,1.62c-0.47,0.75-0.7,1.57-0.73,2.479c-0.02,0.9,0.2,1.7,0.63,2.36
	c0.45,0.67,1.13,1.14,2.05,1.4c0.92,0.279,2.07,0.129,3.47-0.44V289.359z M71.54,239.22c0.22,3.5,0.4,6.98,0.58,10.46
	c0.16,3.471,0.2,6.9,0.1,10.26c-0.1,3.371-0.34,6.601-0.74,9.701c-0.4,3.129-1.06,6-1.95,8.67c2,0.739,4.14,1.16,6.4,1.27
	c2.97,0.17,5.52-0.7,7.64-2.63c2.13-1.931,3.76-4.4,4.9-7.36c1.15-2.98,1.8-6.23,1.96-9.75c0.15-3.529-0.2-6.84-1.07-9.939
	c-0.87-3.12-2.25-5.74-4.14-7.881c-1.9-2.14-4.35-3.279-7.4-3.42C75.56,238.5,73.47,238.7,71.54,239.22L71.54,239.22z
	 M73.34,199.561c-1.06,1.619-1.82,3.6-2.28,5.979c-0.45,2.36-0.7,5.05-0.77,8.06c-0.07,3,0,6.25,0.2,9.7
	c0.2,3.47,0.45,7.06,0.76,10.78c1.34,0.14,2.6,0.1,3.8-0.12c1.18-0.229,2.22-0.521,3.1-0.87c2.42-1,4.13-2.88,5.14-5.67
	c1-2.8,1.3-5.9,0.9-9.33s-1.52-6.84-3.36-10.24c-1.84-3.399-4.34-6.16-7.5-8.3L73.34,199.561z M113.03,211.32l0.46,5.57l6.93-10.101
	c0.63,2.8,1.43,4.86,2.4,6.13c1,1.27,2.05,2.04,3.18,2.301c1.15,0.27,2.28,0.1,3.4-0.471c1.14-0.6,2.15-1.359,3.04-2.3
	c-1.22,3.72-2.66,6.7-4.3,8.96c-1.66,2.25-3.33,3.77-5,4.58c-1.7,0.8-3.33,0.869-4.93,0.199c-1.6-0.68-3-2.14-4.25-4.369l3.48,36.5
	l-10.03,4.05l-4.38-47.021l10-4.039V211.32z"/>
<path fill="#FFFFFF" d="M142.1,199.58c2.42-0.98,4.5-1,6.24-0.1c1.74,0.939,3.03,2.399,3.9,4.399c0.84,2,1.26,4.37,1.25,7.101
	c0,2.74-0.53,5.43-1.56,8.06c-1.02,2.64-2.57,5.03-4.65,7.2c-2.08,2.15-4.73,3.67-7.96,4.55c0.9,2.87,2.07,5.13,3.5,6.771
	c1.44,1.64,3.18,2.049,5.23,1.219c2.43-1,4.42-2.67,5.97-5.049c1.56-2.381,2.8-4.86,3.72-7.451c1.02-2.979,1.77-6.18,2.26-9.619
	l1.76-0.721c-0.2,4.601-0.9,8.86-2.14,12.771c-0.5,1.74-1.12,3.47-1.88,5.181c-0.76,1.729-1.68,3.359-2.76,4.899
	c-1.08,1.56-2.35,2.96-3.8,4.229c-1.45,1.271-3.1,2.28-4.93,3.021c-3.45,1.399-6.53,1.44-9.23,0.14c-2.7-1.3-4.87-3.4-6.5-6.3
	c-1.63-2.87-2.74-6.28-3.3-10.239c-0.58-3.951-0.44-7.871,0.43-11.761c0.86-3.899,2.45-7.5,4.77-10.83c2.33-3.33,5.55-5.83,9.66-7.5
	L142.1,199.58z M141.03,203.6c-0.95,0.381-1.72,1.381-2.3,2.98c-0.6,1.6-1,3.52-1.22,5.74c-0.2,2.22-0.23,4.619-0.08,7.199
	c0.14,2.601,0.44,5.07,0.9,7.461c1.42-0.07,2.58-0.73,3.48-2c0.9-1.25,1.57-2.801,2.02-4.65c0.45-1.84,0.7-3.8,0.77-5.88
	c0.05-2.07-0.08-3.96-0.4-5.67c-0.3-1.7-0.7-3.08-1.25-4.101C142.41,203.66,141.77,203.3,141.03,203.6z"/>
<path fill="#FFFFFF" d="M191.6,180.1c0.631,2.82,1.44,4.9,2.44,6.2s2.069,2.06,3.22,2.271c1.16,0.22,2.301,0.039,3.43-0.551
	c1.121-0.58,2.141-1.359,3.031-2.299C201.62,191.92,199.05,196.12,196,198.3c0.35,3.2,0.46,6.46,0.3,9.8
	c-0.13,3.351-0.56,6.5-1.28,9.5c-0.699,2.961-1.799,5.58-3.299,7.851c-1.471,2.26-3.381,3.86-5.73,4.8
	c-3.02,1.23-5.32,1.45-6.9,0.68c-1.6-0.76-2.8-2.3-3.66-4.6c-0.3,2.85-0.87,5.13-1.72,6.84c-0.84,1.7-2.1,2.9-3.8,3.58
	c-0.96,0.4-1.97,0.561-3.05,0.529c-1.1-0.029-2.1-0.459-3.02-1.279c-0.93-0.82-1.77-2.16-2.52-4.04c-0.76-1.87-1.3-4.45-1.6-7.739
	l-2.55-30.73l9.9-4c0.43,4.6,0.8,8.9,1.12,12.859c0.3,3.471,0.58,6.9,0.88,10.271l0.67,7.54c0.25,3.15,0.64,5.1,1.16,5.869
	c0.53,0.771,1.05,1.061,1.57,0.851c0.36-0.159,0.7-1,1.02-2.54c0.3-1.54,0.5-3.17,0.57-4.9c-0.18-0.869-0.3-1.76-0.37-2.68
	l-0.2-2.859l-2.55-26l10.24-4.12c0.25,3.819,0.53,7.38,0.84,10.67c0.23,2.899,0.48,5.8,0.77,8.7c0.3,2.93,0.5,5.17,0.6,6.75
	c0.14,2,0.27,3.859,0.42,5.6c0.14,1.73,0.35,3.2,0.63,4.42c0.28,1.2,0.68,2.1,1.22,2.7s1.25,0.72,2.13,0.36
	c1.101-0.45,2.021-1.44,2.771-2.98c0.739-1.529,1.299-3.359,1.699-5.48c0.4-2.119,0.58-4.459,0.6-7.029
	c0.031-2.57-0.119-5.1-0.449-7.62c-1.721,0.18-3.32-0.399-4.801-1.771c-1.5-1.35-2.75-3.5-3.759-6.42l7.74-11.58H191.6z
	 M213.32,132.4c3.74-4.67,8-8.3,12.77-10.85c4.76-2.57,9.67-4.57,14.721-6c5.049-1.46,10.069-2.56,15.049-3.34
	c4.98-0.76,9.601-1.7,13.9-2.84c4.27-1.14,8.02-2.65,11.221-4.54c3.199-1.9,5.539-4.7,7-8.47c-0.76,4.66-2.021,8.57-3.78,11.7
	c-1.761,3.16-3.9,5.74-6.4,7.78s-5.3,3.62-8.399,4.74c-3.08,1.12-6.33,2.02-9.721,2.7c-1.77,1.75-2.97,4.28-3.6,7.6
	c-0.6,3.33-0.9,7.18-0.83,11.55c0.05,4.38,0.3,9.13,0.7,14.25c0.399,5.13,0.7,10.3,0.94,15.5l11.899-4.8l0.36,4.08l-12.101,4.899
	c0.14,4.801,0.08,9.451-0.2,13.961c-0.27,4.52-0.97,8.68-2.119,12.52c-1.141,3.83-2.801,7.2-5,10.1
	c-2.201,2.881-5.101,5.061-8.701,6.5c-1.92,0.781-3.859,1.271-5.819,1.461c-1.979,0.199-3.8-0.021-5.46-0.67
	c-1.68-0.641-3.1-1.78-4.26-3.4c-1.17-1.62-1.92-3.9-2.25-6.84c-0.2-1.96,0.14-3.7,1.029-5.2c0.881-1.521,2-2.74,3.381-3.681
	c1.369-0.939,2.899-1.569,4.55-1.899c1.67-0.33,3.149-0.271,4.45,0.2c1.3,0.449,2.279,1.33,2.979,2.63s0.8,3.069,0.351,5.3
	c-1.28-0.4-2.34-0.449-3.201-0.1c-0.829,0.33-1.5,0.869-1.959,1.619c-0.461,0.74-0.7,1.561-0.73,2.471
	c-0.029,0.9,0.17,1.7,0.57,2.38c0.4,0.681,1.061,1.17,1.939,1.46c0.9,0.28,2.03,0.141,3.42-0.42c1.9-0.77,3.25-2.5,4-5.141
	c0.771-2.659,1.201-5.899,1.271-9.729s-0.101-8.14-0.5-12.93c-0.399-4.8-0.761-9.7-1.08-14.74c-0.319-5.03-0.521-10.05-0.58-15.06
	c-0.06-5.02,0.25-9.7,0.94-14.02c0.68-4.33,1.869-8.16,3.55-11.5c1.7-3.3,4.149-5.85,7.38-7.58c-3.84,0.62-7.7,1.16-11.57,1.6
	c-3.88,0.46-7.55,1.15-11,2.08c-3.479,0.93-6.66,2.26-9.55,3.98c-2.899,1.72-5.3,4.12-7.2,7.2c-2.24,3.55-3.65,7.35-4.24,11.38
	c-0.6,4.04-0.619,8.04-0.1,12c0.551,3.98,1.561,7.75,3.051,11.33c1.479,3.569,3.199,6.64,5.1,9.2c1.939,2.55,4,4.4,6.17,5.57
	c2.18,1.17,4.26,1.359,6.25,0.549c1.17-0.469,1.949-1.279,2.35-2.42c0.4-1.14,0.37-2.239-0.06-3.299
	c-0.421-1.07-1.28-1.83-2.58-2.301c-1.3-0.449-3.08-0.22-5.351,0.7c-0.539-1.32-0.629-2.601-0.279-3.86
	c0.34-1.25,0.939-2.35,1.8-3.3c0.851-0.93,1.931-1.66,3.2-2.18c1.3-0.52,2.57-0.73,3.85-0.65c1.27,0.1,2.5,0.54,3.67,1.341
	c1.18,0.799,2.131,2.1,2.84,3.85c0.68,1.68,0.92,3.4,0.73,5.14c-0.2,1.74-0.73,3.38-1.6,4.931c-0.871,1.549-2.03,2.949-3.48,4.219
	c-1.45,1.261-3.061,2.25-4.83,2.961c-4.699,1.9-8.96,2.359-12.76,1.38c-3.82-0.979-7.04-3-9.67-6.021
	c-2.631-3.029-4.631-6.82-6-11.35c-1.35-4.53-1.961-9.4-1.801-14.63c0.15-5.23,1.141-10.54,2.98-15.93
	c1.83-5.4,4.62-10.42,8.37-15.1L213.32,132.4z M317.68,147.63c4,0.78,7.061,2.42,9.221,4.92c2.159,2.5,3.38,5.23,3.64,8.2
	c0.25,2.97-0.53,5.9-2.34,8.8c-1.8,2.921-4.74,5.2-8.771,6.82c-2.8,1.13-5.569,1.229-8.33,0.3c-2.77-0.93-4.8-2.5-6.129-4.7
	c-1.061,3.07-2.58,6.02-4.57,8.82c-1.98,2.8-4.66,4.88-8.03,6.25c-3.46,1.399-6.53,1.44-9.229,0.14
	c-2.701-1.3-4.871-3.399-6.5-6.279c-1.641-2.9-2.74-6.301-3.301-10.26c-0.58-3.95-0.439-7.87,0.42-11.76
	c0.87-3.9,2.461-7.5,4.801-10.83c2.299-3.33,5.529-5.83,9.64-7.5c2.42-0.97,4.5-1,6.239-0.08c1.74,0.92,3.031,2.38,3.881,4.38
	c0.859,2,1.279,4.37,1.27,7.1c0,2.74-0.529,5.43-1.56,8.06c-1.021,2.64-2.58,5.03-4.65,7.2c-2.08,2.15-4.729,3.67-7.96,4.55
	c0.9,2.87,2.07,5.131,3.5,6.771c1.439,1.64,3.18,2.05,5.23,1.22c2.5-1.02,4.52-2.73,6.06-5.15c1.54-2.399,2.771-4.899,3.7-7.5
	c0.029-2.67,0.84-4.66,2.439-6c1.601-1.32,3.381-2.04,5.341-2.15c1.97-0.1,3.76,0.4,5.37,1.55c1.619,1.14,2.46,2.85,2.52,5.13
	c-1.94-0.76-3.4-0.7-4.36,0.16c-0.979,0.86-1.5,1.88-1.58,3.07c-0.079,1.2,0.271,2.27,1.051,3.23c0.779,0.971,2,1.26,3.62,0.85
	c1.85-0.5,3.13-1.5,3.84-3.02c0.699-1.52,0.899-3.14,0.6-4.85c-0.3-1.71-1.1-3.3-2.4-4.8c-1.279-1.48-2.96-2.48-5.05-3
	c-3.649-0.83-6.6-2.4-8.859-4.68c-2.251-2.3-3.561-4.82-3.95-7.56c-0.4-2.75,0.23-5.48,1.869-8.2c1.641-2.7,4.501-4.9,8.621-6.55
	c3.6-1.44,6.699-1.63,9.359-0.57c2.65,1.07,4.2,3.2,4.65,6.45c0.24,2.46-0.32,4.46-1.66,6c-1.35,1.5-2.9,2.46-4.62,2.8
	c-1.74,0.37-3.38,0.12-4.93-0.75s-2.34-2.5-2.36-4.88c2,0.48,3.44,0.32,4.351-0.48c0.899-0.8,1.38-1.68,1.399-2.68
	c0.03-1-0.37-1.84-1.2-2.53c-0.83-0.7-2.06-0.7-3.67-0.06c-1.47,0.6-2.529,1.57-3.2,2.9c-0.649,1.34-0.869,2.75-0.649,4.24
	c0.22,1.5,0.92,2.9,2.1,4.22c1.16,1.32,2.87,2.2,5.101,2.67L317.68,147.63z M287.13,144.6c-0.95,0.4-1.72,1.38-2.3,2.98
	c-0.6,1.6-1,3.52-1.221,5.74c-0.199,2.22-0.229,4.63-0.079,7.2c0.14,2.6,0.44,5.08,0.899,7.46c1.42-0.07,2.58-0.73,3.48-2
	c0.9-1.25,1.57-2.8,2.02-4.64c0.45-1.84,0.7-3.8,0.771-5.88c0.05-2.08-0.08-3.97-0.4-5.68c-0.3-1.7-0.72-3.08-1.26-4.1
	s-1.17-1.38-1.899-1.08H287.13z M330.1,124.17l-1.779-20.28l9.899-4l0.58,6.16c0.17,1.9,0.37,4.05,0.63,6.47
	c0.25,2.42,0.48,4.95,0.7,7.6l6.93-2.8l2,4.95l-8.369,3.38l1.8,20c0.27,4.26,0.8,7.3,1.6,9.17c0.78,1.86,1.76,2.55,2.94,2.07
	c1.1-0.44,2-1.62,2.729-3.53c0.721-1.92,1.3-4.05,1.771-6.4c0.45-2.38,0.8-4.7,1.029-6.96c0.23-2.27,0.381-3.97,0.44-5.1l1.77-0.7
	c0.051,2.02-0.029,4.68-0.239,7.96c-0.2,3.3-0.67,6.55-1.37,9.77c-0.7,3.23-1.67,6.16-2.9,8.8c-1.25,2.64-2.899,4.37-4.96,5.2
	c-3.3,1.33-6.16,0.65-8.569-2.05c-2.4-2.7-3.9-7.38-4.471-14.07l-1.7-20.05l-3.96,1.6l-2-4.95l5.5-2.23V124.17z"/>
<path fill="#C8B68E" d="M74.3,161.45l-0.05-3.78v-0.16c0.02-0.26,0.15-0.38,0.4-0.36c0.1,0,0.22,0.1,0.33,0.28l2.02,3.43l4.2-1.16
	c0.08-0.03,0.14-0.05,0.2-0.04c0.05,0,0.12,0.04,0.18,0.1c0.06,0.06,0.1,0.13,0.08,0.2c0,0.08-0.07,0.18-0.2,0.3l-3.02,2.72
	l2.56,3.16c0.1,0.13,0.16,0.24,0.15,0.33c0,0.07-0.04,0.13-0.1,0.18c-0.08,0.05-0.15,0.07-0.22,0.07c-0.05,0-0.1-0.03-0.2-0.07
	l-3.94-1.8l-2.55,3.08c-0.13,0.16-0.26,0.23-0.38,0.22c-0.23-0.02-0.34-0.16-0.32-0.43c0-0.03,0-0.08,0.02-0.15l0.65-3.73
	l-3.95-1.17c-0.2-0.06-0.33-0.1-0.4-0.16c-0.05-0.04-0.07-0.1-0.07-0.2s0.05-0.17,0.1-0.2c0.08-0.05,0.2-0.08,0.42-0.1l4.1-0.55
	L74.3,161.45z M74.5,147.02l0.37-4.7c0-0.07,0-0.14,0.02-0.2c0.05-0.3,0.22-0.45,0.52-0.4c0.14,0.03,0.27,0.16,0.38,0.4l2.1,4.5
	l5.32-0.94c0.1-0.03,0.2-0.03,0.26-0.02c0.07,0,0.15,0.06,0.22,0.15c0.07,0.1,0.1,0.17,0.08,0.25c-0.02,0.1-0.1,0.23-0.28,0.35
	l-4.08,3.02l2.8,4.22c0.1,0.18,0.16,0.32,0.14,0.43c-0.02,0.08-0.07,0.16-0.16,0.2c-0.1,0.06-0.2,0.08-0.27,0.07
	c-0.06,0-0.13-0.05-0.23-0.1l-4.68-2.7l-3.5,3.5c-0.2,0.18-0.36,0.25-0.5,0.23c-0.3-0.06-0.4-0.25-0.36-0.58l0.04-0.2l1.26-4.53
	l-4.75-1.93c-0.24-0.1-0.4-0.18-0.46-0.25c-0.06-0.08-0.08-0.17-0.06-0.3c0.02-0.1,0.07-0.18,0.15-0.22
	c0.1-0.04,0.26-0.07,0.53-0.08l5.13-0.18L74.5,147.02z M77.77,130.63l1.08-5.06l0.05-0.2c0.1-0.36,0.32-0.48,0.63-0.38
	c0.16,0.03,0.28,0.2,0.37,0.47l1.64,5.2l5.94-0.28c0.12-0.02,0.22,0,0.28,0c0.08,0.04,0.15,0.1,0.22,0.2
	c0.06,0.1,0.08,0.2,0.05,0.28c-0.03,0.12-0.15,0.24-0.36,0.35l-4.85,2.7l2.44,5c0.1,0.2,0.13,0.37,0.1,0.48
	c-0.03,0.1-0.1,0.17-0.2,0.22c-0.12,0.05-0.22,0.06-0.3,0.03c-0.07-0.02-0.14-0.07-0.24-0.15l-4.72-3.6l-4.32,3.3
	c-0.23,0.2-0.42,0.25-0.57,0.2c-0.3-0.1-0.4-0.32-0.3-0.68l0.08-0.18l2-4.78l-4.9-2.77c-0.25-0.15-0.4-0.26-0.47-0.35
	c-0.05-0.08-0.07-0.18-0.02-0.3c0.03-0.13,0.1-0.2,0.2-0.24c0.1-0.02,0.3-0.03,0.58,0l5.6,0.53L77.77,130.63z"/>
<path fill="#FFFFFF" d="M91.22,122.84l-5.9-3.1l1.42-2.67c1.1,0.54,2.02,0.7,2.8,0.48c0.75-0.2,1.3-0.63,1.62-1.25
	c0.26-0.48,0.3-1,0.1-1.5c-0.2-0.54-0.54-0.93-1.04-1.2c-0.53-0.27-1.06-0.35-1.6-0.2s-1.25,0.5-2.16,1.12
	c-1.93,1.3-3.43,2.1-4.5,2.36c-1.1,0.26-2.26,0.06-3.5-0.6c-1.52-0.8-2.46-1.84-2.84-3.14c-0.38-1.3-0.27-2.5,0.3-3.6
	c0.66-1.24,1.7-1.93,3.15-2.05l-1.44-0.76l1.4-2.66l5.26,2.77l-1.4,2.66c-0.87-0.34-1.63-0.42-2.3-0.22
	c-0.67,0.2-1.15,0.57-1.45,1.14c-0.23,0.43-0.3,0.87-0.2,1.3c0.1,0.43,0.36,0.77,0.77,1c0.36,0.18,0.76,0.23,1.2,0.15
	s1.3-0.57,2.52-1.47c1.18-0.87,2.17-1.5,2.95-1.87c0.78-0.38,1.64-0.55,2.56-0.53c0.93,0.03,1.87,0.3,2.83,0.8
	c1.7,0.9,2.74,2.03,3.13,3.4c0.39,1.37,0.25,2.65-0.4,3.9c-0.73,1.37-1.85,2.14-3.37,2.3l1.47,0.77l-1.4,2.67H91.22z M87.06,91.83
	c1.87-2.43,4.12-3.75,6.74-3.96c2.6-0.2,5.03,0.55,7.25,2.26c2.22,1.7,3.56,3.86,4.02,6.45c0.46,2.58-0.24,5.1-2.1,7.5
	c-1.96,2.53-4.24,3.86-6.87,4c-2.62,0.12-5-0.64-7.14-2.28c-2.2-1.7-3.55-3.85-4.02-6.43C84.46,96.79,85.17,94.27,87.06,91.83z
	 M89.88,94c-0.83,1.1-1.1,2.35-0.8,3.8c0.32,1.43,1.33,2.8,3.05,4.14c1.52,1.17,3.02,1.73,4.5,1.7c1.5-0.05,2.66-0.62,3.5-1.72
	c0.85-1.08,1.1-2.34,0.8-3.8c-0.3-1.46-1.3-2.8-3-4.1c-1.5-1.16-3-1.74-4.48-1.74s-2.68,0.58-3.57,1.73V94z M98.22,84l-2.2-2.46
	l6.38-5.63l2.18,2.5l-1.3,1.15l5.84,6.62c0.78,0.88,1.38,1.5,1.8,1.82c0.4,0.32,0.86,0.48,1.37,0.48c0.5,0,0.98-0.2,1.42-0.6
	c0.45-0.4,0.73-0.84,0.8-1.35c0.07-0.51,0.03-0.97-0.2-1.4c-0.22-0.44-0.83-1.2-1.8-2.3l-5.68-6.44l-1.3,1.14l-2.18-2.48l5.3-4.7
	l2.2,2.48l-1.63,1.44l6.47,7.33c0.88,1,1.47,1.77,1.77,2.3c0.3,0.54,0.48,1.2,0.53,1.94c0.05,0.75-0.13,1.55-0.54,2.4
	c-0.4,0.86-1.04,1.67-1.9,2.42c-0.98,0.87-1.95,1.46-2.92,1.77c-0.96,0.3-1.83,0.36-2.62,0.15c-0.78-0.2-1.44-0.5-1.98-0.93
	c-0.54-0.4-1.34-1.22-2.4-2.42L99.8,82.6L98.22,84z M123.9,83.65l-1.8-2.78l2.26-1.44l-6.98-10.9l-2.25,1.45l2.45,3.83l-2.57,1.66
	l-4.23-6.6l13.6-8.72l4.23,6.6l-2.55,1.64l-2.45-3.83l-2.32,1.5l6.98,10.87l2.25-1.44l1.8,2.78l-8.4,5.4L123.9,83.65z M134.86,76.5
	l-1.35-3.02l2.05-0.9l-5.26-11.82l-2.04,0.9l-1.35-3l7.87-3.5l1.34,3l-1.7,0.77l1.75,3.9l4.43-1.96l-1.74-3.9l-1.65,0.72l-1.35-3.03
	l7.8-3.47l1.34,3.02l-2.04,0.9l5.25,11.82l2.05-0.9l1.34,3l-7.8,3.48l-1.35-3l1.65-0.75l-2.17-4.87l-4.43,1.97l2.16,4.88l1.7-0.76
	l1.35,3l-7.84,3.5L134.86,76.5z M161.82,66.22l-0.43-3.27l2.16-0.28l-1.68-12.83l-2.17,0.3l-0.42-3.28l8.06-1.06
	c1.78-0.23,3.12-0.3,4.02-0.18c0.9,0.1,1.73,0.56,2.48,1.36s1.2,1.78,1.36,2.96c0.24,1.88-0.4,3.32-1.97,4.32
	c2.23,0.58,3.5,2,3.8,4.22c0.15,1.28-0.03,2.42-0.57,3.42c-0.53,1-1.3,1.73-2.3,2.2c-0.98,0.46-2.4,0.82-4.28,1.07L161.82,66.22
	L161.82,66.22z M167.05,53.62l1.3-0.18c0.9-0.12,1.52-0.37,1.9-0.76c0.38-0.4,0.52-1,0.4-1.85c-0.1-0.77-0.37-1.3-0.82-1.55
	c-0.45-0.26-1.2-0.33-2.22-0.2l-1.13,0.16l0.58,4.37L167.05,53.62z M168.15,62.06l1.3-0.17c1.17-0.16,1.97-0.46,2.4-0.9
	c0.4-0.42,0.55-1.1,0.43-2.04c-0.13-1-0.47-1.64-1.03-1.97c-0.55-0.34-1.38-0.43-2.48-0.3l-1.3,0.18l0.7,5.18L168.15,62.06z
	 M178.34,64.1l0.14-3.3l2.13,0.1l0.53-12.93L179,47.89l0.13-3.3l15.681,0.62l-0.24,6.2l-3.4-0.15l0.1-2.9l-5.5-0.2l-0.18,4.5
	l4.45,0.17l-0.13,3.3l-4.45-0.18l-0.2,5.12l5.5,0.22l0.12-2.92l3.399,0.14l-0.25,6.22L178.35,64.1H178.34z"/>
<path fill="#FFFFFF" d="M194,64.6l0.7-3.22l2.319,0.5l2.681-12.66l-2.33-0.5l0.68-3.22l7.32,1.54l3.88,13.28l1.84-8.7l-2.27-0.47
	l0.68-3.23l7.82,1.66l-0.68,3.22l-2.44-0.5l-3.4,16l-3.88-0.82l-4.5-15.75l-2.3,10.8l2.2,0.46l-0.7,3.22l-7.601-1.6L194,64.6z
	 M212.66,68.56l1.18-3.08l2.52,0.98L221,54.38l-2.5-1l1.18-3.06l7.87,3.03c1.66,0.64,2.94,1.26,3.87,1.87
	c0.93,0.61,1.7,1.48,2.33,2.6c0.63,1.12,0.98,2.43,1.04,3.93c0.05,1.5-0.22,3.03-0.82,4.6c-0.5,1.26-1.149,2.4-1.979,3.4
	s-1.67,1.73-2.521,2.2c-0.85,0.5-1.76,0.8-2.72,0.9s-1.8,0.08-2.52-0.06c-0.73-0.12-1.801-0.46-3.201-1l-8.379-3.24L212.66,68.56z
	 M220.66,68.12l1.05,0.4c1.271,0.48,2.34,0.7,3.2,0.6c0.88-0.06,1.72-0.47,2.5-1.2c0.779-0.73,1.5-1.83,2.05-3.3
	c0.53-1.38,0.761-2.64,0.7-3.8c-0.1-1.13-0.439-2.03-1.07-2.7c-0.63-0.67-1.529-1.22-2.72-1.67l-1.04-0.4l-4.65,12.07H220.66z"/>
<path fill="#C8B68E" d="M247.721,73.6l4.729,2.1l0.2,0.1c0.3,0.18,0.399,0.4,0.229,0.7c-0.08,0.14-0.26,0.22-0.55,0.26l-5.42,0.53
	l-0.96,5.85c0,0.13-0.04,0.22-0.07,0.27c-0.04,0.08-0.12,0.14-0.229,0.18c-0.11,0.04-0.2,0.04-0.301,0
	c-0.1-0.07-0.199-0.2-0.25-0.43l-1.649-5.3l-5.4,1.34c-0.22,0.07-0.399,0.07-0.5,0c-0.079-0.04-0.13-0.12-0.149-0.24
	c-0.021-0.1,0-0.2,0.029-0.3c0.03-0.05,0.1-0.1,0.2-0.2l4.5-3.86l-2.36-4.9c-0.119-0.27-0.14-0.47-0.06-0.6
	c0.17-0.3,0.399-0.35,0.74-0.17l0.159,0.1L244.87,72l3.729-4.23c0.18-0.22,0.32-0.35,0.4-0.4c0.1-0.04,0.2-0.03,0.33,0.04
	c0.1,0.07,0.17,0.15,0.18,0.25c0.03,0.1,0,0.3-0.1,0.57l-1.68,5.4L247.721,73.6z M260.93,83.02l4.12,2.27
	c0.08,0.03,0.13,0.06,0.171,0.1c0.279,0.18,0.329,0.4,0.159,0.64c-0.08,0.12-0.25,0.18-0.5,0.2l-4.97,0.06l-1.32,5.24
	c-0.029,0.1-0.061,0.2-0.1,0.24c-0.04,0.06-0.1,0.1-0.221,0.14c-0.1,0.02-0.199,0.02-0.26-0.03c-0.1-0.07-0.16-0.2-0.199-0.4
	l-1.08-4.96l-5,0.8c-0.201,0.05-0.351,0.03-0.44-0.03c-0.08-0.04-0.12-0.12-0.13-0.22c0-0.1,0-0.2,0.06-0.27
	c0.04-0.04,0.101-0.1,0.2-0.15l4.37-3.17l-1.75-4.64c-0.101-0.24-0.101-0.42,0-0.54c0.16-0.25,0.38-0.28,0.66-0.1l0.149,0.12
	l3.631,3.02l3.699-3.55c0.2-0.2,0.33-0.3,0.42-0.34c0.101-0.03,0.18,0,0.28,0.06c0.101,0.06,0.149,0.14,0.149,0.24
	c0.021,0.1-0.029,0.26-0.129,0.5l-1.94,4.76L260.93,83.02z M270.82,92.53l3.199,2.03l0.131,0.1c0.199,0.16,0.24,0.33,0.1,0.52
	c-0.08,0.1-0.22,0.14-0.43,0.13l-3.98-0.2l-1.34,4.14c-0.02,0.1-0.05,0.15-0.08,0.2c-0.04,0.04-0.1,0.07-0.199,0.1
	c-0.07,0-0.141,0-0.201-0.04c-0.06-0.06-0.1-0.17-0.14-0.34l-0.601-4.02l-4.049,0.4c-0.17,0-0.301,0-0.36-0.06
	c-0.06-0.04-0.101-0.1-0.101-0.2c0-0.08,0.03-0.15,0.07-0.2c0.03-0.04,0.08-0.08,0.16-0.13l3.67-2.3l-1.16-3.8
	c-0.05-0.22-0.05-0.36,0.03-0.45c0.14-0.2,0.319-0.2,0.54-0.04l0.1,0.1l2.76,2.6l3.16-2.65c0.15-0.13,0.271-0.2,0.34-0.23
	c0.07-0.02,0.141,0,0.221,0.06c0.07,0.05,0.1,0.12,0.1,0.2c0,0.07-0.039,0.2-0.13,0.4l-1.8,3.7L270.82,92.53z"/>
<path fill="#FECC07" d="M152.6,196.529l-0.23-2.639c-0.12-1.531,0.48-2.971,1.55-3.951c-1.28-0.6-2.3-1.58-2.7-3.039L146.2,130.3
	l7.94,53c1.7,2.2,3.5,2.15,5.38-0.12l-0.95-53.25l4.5,55.97l2.22-0.9c0.17-0.07,0.37-0.13,0.56-0.18c0.5-0.141,1.02-0.18,1.53-0.15
	c0.46-0.52,1.05-0.939,1.74-1.22l0.46-0.181l-6.08-53.449c3.1,17.479,6.17,34.6,9.26,52.08l0.07,0.05l5.18-2.101
	c-0.77-17.419-1.45-33.87-2.22-51.33l5.32,50.46c0.92,0,1.83,0.22,2.62,0.72c0.57,0.36,1.05,0.819,1.42,1.35l2.43-3.63
	c0.26-0.4,0.6-0.76,0.97-1.061c-1.84-16.259-3.7-32.529-5.53-48.799c2.8,15.9,5.63,31.82,8.451,47.72c0.319,0,0.659,0,1,0.079
	c1.27,0.24,2.35,0.98,3.059,2c-0.1-1.75-0.149-3.529-0.1-5.35c0.1-3.5,0.57-7.07,1.381-10.66l-1.601-35.8l3,28.43
	c0.521-2.67,1.22-5.35,2.13-8.02c0.46-1.36,0.98-2.7,1.561-4l-2.881-20.6c-3.399,0.58-6.5,0.58-8.6-1.8
	c-7.1,8.35-20.2,8.95-26.9,0.3c-3.36,0.7-6.5,0.5-9.4-0.53c-2.56,3.52-6.02,5.85-11.32,5.78c0.94,22.73,1.4,45.5,3.2,68.15
	l0.08,0.771c1.6,0.079,3.12,0.47,4.5,1.2c0.7,0.379,1.37,0.819,2,1.3L152.6,196.529z"/>
<path fill="#FECC07" d="M138.52,129.6c0.17,1.7,0.16,4.07,0.33,5.8c-3.27-0.73-6.2-2.02-9.58-2.2c-4.87-0.28-7.5,1.07-7.83,3.67
	c-1.27,9.85-1.74,19.92,2.56,28.92c2.93,6.1,10,6.46,16.1,6.76l0.6,6c-4.38,0-8.94,0.341-13.24-1.229c-5.8-2.1-9.6-6.23-10.67-11.05
	c-3.05-13.65-2.93-25.87-0.1-34.8c0.8-2.55,1.67-4.43,8-4.5c4.2-0.07,8.8,0.66,13.82,2.6L138.52,129.6z"/>
<path fill="#FFFFFF" d="M207.5,111.86c-0.2,3.1-0.9,6.04-4.35,8.34l2,13.86c1.43-2.33,3.22-4.44,5.3-6.26
	c-0.36-0.78-0.74-1.57-1.171-2.36c10.271-9.57,5.621-16.83-3.199-23.44c0.67-11.14-5.96-13.56-15.9-12
	c-5.74-9.58-13.35-12.4-23.72-5.42c-10.9-10.87-26.27-8-29.26,7.2l-0.5-5.15c-10.05,1.9-9.7,6.4-9.96,10.76
	c1.92-1.17,4.5-0.94,7.2-0.5c-10.53,3.4-13.3,13.64-0.88,17.38c-6.16,4.97-3,12.45,5.1,9.1l-3.15-3.45c11.33,3.9,14.43-0.4,15.2-9.8
	c3.13,5.36,10.9,9,16,3.23c2.17,12.46,16.54,12.4,22.87,1.54c7.73,5.2,12.33,3.56,18.43-3.04L207.5,111.86z"/>
<path fill="#2E1820" d="M198.15,104.78c-5.73-6.78-10.851-6.7-16.621,0.4c1.32-9.2-2.74-12.72-11.83-10.9
	c4.64-4.36,14.56-3.75,15.17,2.88C193.05,93.08,198.25,100.76,198.15,104.78z M155.86,92.98c-13.4-5.08-21.95,3-16.73,13.5
	C138.79,97.43,144.36,92.93,155.86,92.98z"/>
</svg>
