<?xml version="1.0" encoding="utf-8"?>
<!-- Generator: Adobe Illustrator 16.0.0, SVG Export Plug-In . SVG Version: 6.00 Build 0)  -->
<!DOCTYPE svg PUBLIC "-//W3C//DTD SVG 1.1//EN" "http://www.w3.org/Graphics/SVG/1.1/DTD/svg11.dtd">
<svg version="1.1" id="Layer_1" xmlns="http://www.w3.org/2000/svg" xmlns:xlink="http://www.w3.org/1999/xlink" x="0px" y="0px"
	 width="300px" height="147.012px" viewBox="0 0 300 147.012" enable-background="new 0 0 300 147.012" xml:space="preserve">
<g>
	<path fill="#fff" d="M201.947,126.483H73c-1.14,0-2.062-0.891-2.062-1.99s0.922-1.991,2.062-1.991h128.947c1.138,0,2.061,0.892,2.061,1.991
		S203.085,126.483,201.947,126.483"/>
	<path fill="#fff" d="M297.939,126.483h-33.947c-1.139,0-2.061-0.891-2.061-1.99s0.922-1.991,2.061-1.991h33.947
		c1.138,0,2.061,0.892,2.061,1.991S299.077,126.483,297.939,126.483"/>
	<path fill="#fff" d="M201.947,147.012H2.061c-1.138,0-2.061-0.891-2.061-1.99s0.923-1.991,2.061-1.991h199.887c1.138,0,2.061,0.892,2.061,1.991
		S203.085,147.012,201.947,147.012"/>
	<path fill="#fff" d="M297.939,147.012h-33.947c-1.139,0-2.061-0.891-2.061-1.99s0.922-1.991,2.061-1.991h33.947
		c1.138,0,2.061,0.892,2.061,1.991S299.077,147.012,297.939,147.012"/>
	<path fill="#fff" d="M80.221,72.128c-3.415,4.618-20.044,26.354-36.484,34.878c-10.255,5.697-27.435,6.532-31.952-6.796
		c-5.591-16.5,13.513-28.175,13.513-28.175c12.569-8.214,32.766-5.253,36.796-4.919c1.947,0.161,10.694,1.259,20.617,1.106
		L80.221,72.128z M121.298,52.171c1.229-1.773,2.617-3.458,4.129-5.009c1.504-1.543,3.036-2.846,4.553-3.873
		c1.364-0.924,2.608-1.392,3.696-1.394c0.284,0,0.507,0.057,0.701,0.184c0.056,0.036,0.112,0.08,0.165,0.129
		c0.247,0.231,0.299,0.704,0.299,1.061c0.001,1.348-0.576,2.599-1.768,3.823c-1.343,1.382-2.973,2.614-4.847,3.662
		c-1.922,1.08-3.948,1.995-6.026,2.724c-0.796,0.277-1.541,0.523-2.235,0.731C120.361,53.562,120.805,52.881,121.298,52.171
		 M249.837,40.751c0.422-0.643,0.242-1.503-0.404-1.922h-0.002l-0.013-0.009l-0.003-0.002l-0.002-0.001
		c-0.238-0.149-0.504-0.219-0.769-0.215l-6.085,0.007c-0.482-0.001-0.932,0.253-1.188,0.661c-2.657,4.303-5.463,8.478-8.342,12.411
		c-2.866,3.919-5.729,7.437-8.504,10.455c-2.746,2.984-5.375,5.402-7.811,7.185c-2.271,1.659-4.228,2.5-5.82,2.501
		c-0.423,0-0.753-0.067-0.951-0.196c-0.272-0.178-0.409-0.607-0.411-1.278c0-0.638,0.272-1.866,1.574-4.088
		c1.155-1.962,2.67-4.271,4.508-6.868c1.863-2.627,3.989-5.544,6.32-8.666c2.366-3.171,4.756-6.511,7.108-9.926
		c0.293-0.425,0.324-0.977,0.082-1.434c-0.112-0.213-0.277-0.388-0.472-0.515c-0.224-0.146-0.486-0.226-0.763-0.225l-6.598,0.007
		c-0.462,0-0.896,0.229-1.154,0.611c-2.517,3.693-4.76,6.928-6.713,9.686c-0.001-0.003-0.003-0.005-0.003-0.005
		c-0.097,0.133-0.195,0.273-0.289,0.406c-0.483,0.377-0.978,0.75-1.489,1.104c-0.767,0.533-1.587,0.984-2.442,1.341
		c-0.778,0.323-1.575,0.488-2.368,0.488c-0.472,0-0.872-0.111-1.228-0.341c-0.184-0.121-0.362-0.277-0.53-0.467
		c-0.523-0.59-0.786-1.478-0.788-2.639c-0.002-1.649,0.437-3.13,1.345-4.527c0.972-1.5,1.985-2.784,3.01-3.824
		c0.089-0.078,0.166-0.169,0.234-0.272c0.42-0.643,0.241-1.503-0.406-1.922l-0.002-0.001l-0.037-0.025
		c-0.189-0.114-0.395-0.178-0.602-0.197c-0.585-0.063-1.18-0.112-1.765-0.147c-0.584-0.035-1.257-0.051-2.004-0.051
		c-1.607,0.003-2.673,0.322-3.354,1.007c-0.423,0.428-0.814,0.967-1.163,1.606c-1.709,1.161-3.466,2.484-5.227,3.937
		c-1.224,1.012-2.426,2.041-3.592,3.08l4.547-6.659c0.291-0.424,0.321-0.975,0.079-1.43c-0.112-0.212-0.274-0.388-0.472-0.515
		c-0.221-0.144-0.487-0.224-0.762-0.224l-6.007,0.007c-0.474-0.001-0.917,0.24-1.173,0.639c-2.111,3.279-4.216,6.567-6.303,9.839
		c-0.573,0.459-1.164,0.908-1.775,1.335c-0.767,0.533-1.589,0.985-2.445,1.341c-0.786,0.326-1.562,0.488-2.367,0.488
		c-0.47,0.001-0.869-0.113-1.224-0.342c-0.188-0.121-0.365-0.276-0.532-0.466c-0.524-0.591-0.789-1.479-0.789-2.637
		c-0.003-1.651,0.437-3.133,1.346-4.531c0.972-1.497,1.983-2.783,3.008-3.823c0.089-0.078,0.166-0.169,0.235-0.271
		c0.42-0.642,0.24-1.503-0.405-1.923l-0.004-0.001l-0.042-0.027l-0.002-0.001c-0.187-0.112-0.391-0.175-0.596-0.193
		c-0.6-0.064-1.192-0.114-1.761-0.148c-0.604-0.035-1.277-0.05-2.007-0.05c-1.605,0.001-2.671,0.323-3.353,1.008
		c-0.423,0.427-0.816,0.964-1.164,1.606c-1.708,1.16-3.465,2.482-5.227,3.937c-1.223,1.011-2.426,2.04-3.59,3.079l4.547-6.659
		c0.289-0.424,0.318-0.976,0.076-1.43c-0.111-0.213-0.275-0.388-0.47-0.514c-0.224-0.145-0.487-0.227-0.764-0.226l-6.006,0.007
		c-0.475,0-0.916,0.242-1.174,0.639c-3.712,5.762-7.383,11.516-10.915,17.106c-0.037,0.061-0.076,0.123-0.114,0.184
		c-2.638,2.883-5.433,5.499-8.316,7.769c-2.926,2.301-5.837,4.163-8.651,5.53c-2.713,1.318-5.073,1.989-7.019,1.992
		c-0.645,0-1.173-0.125-1.563-0.374l-0.039-0.025c-0.417-0.271-0.736-0.606-0.979-1.023c-0.29-0.501-0.504-1.065-0.636-1.673
		c-0.143-0.66-0.218-1.341-0.218-2.03c0-1.515,0.213-3.05,0.633-4.567c0.364-1.307,0.82-2.516,1.36-3.6
		c2.054-0.471,4.4-1.153,6.993-2.032c2.867-0.972,5.592-2.096,8.094-3.34c2.552-1.264,4.753-2.695,6.544-4.251
		c2.013-1.754,3.033-3.651,3.033-5.643c-0.004-1.744-0.673-3.166-1.938-4.117c-0.101-0.075-0.2-0.145-0.304-0.213
		c-1.129-0.732-2.603-1.101-4.381-1.099c-3.179,0.004-6.519,0.963-9.929,2.852c-3.314,1.836-6.396,4.178-9.165,6.961
		c-2.771,2.784-5.083,5.866-6.873,9.161c0,0-0.233,0.418-0.564,1.129c-3.605,2.232-7.826,4.031-12.251,4.031
		c6.497-11.235,14.652-25.234,16.236-27.862c2.685-4.456,5.354-8.539,7.936-12.139c2.543-3.548,5.014-6.456,7.347-8.64
		c0,0,1.603-1.785,4.058-1.346c0,0,18.301,2.551,16.364-6.942c0,0-2.237-12.585-21.846,1.65c-8.45-0.784-15.449-0.277-15.524-0.27
		c-2.642,0.173-5.965,0.513-9.875,1.006c-3.923,0.495-8.108,1.229-12.44,2.183c-4.333,0.958-8.729,2.183-13.065,3.64
		c-4.425,1.49-8.428,3.334-11.899,5.479c-3.58,2.214-6.483,4.837-8.63,7.797c-2.291,3.156-3.314,6.813-3.042,10.871
		c0.265,3.935,1.91,7.083,4.887,9.357c0.252,0.191,0.517,0.377,0.786,0.552c2.796,1.815,6.394,2.59,10.697,2.306
		c2.36-0.159,4.65-0.743,6.805-1.741c2.133-0.986,4.021-2.272,5.618-3.824c1.612-1.57,2.91-3.42,3.849-5.501
		c0.979-2.165,1.392-4.475,1.233-6.864c-0.047-0.69-0.155-1.448-0.32-2.257c-0.187-0.893-0.499-1.732-0.85-2.538
		c-0.302-0.692-1.483-2.745-4.056-1.585c-1.999,0.901-1.13,3.424-1.13,3.424c0.425,1.228,0.67,2.316,0.731,3.229
		c0.098,1.475-0.153,2.914-0.747,4.28c-0.625,1.43-1.511,2.714-2.626,3.817c-1.132,1.118-2.488,2.04-4.03,2.742
		c0,0-8.928,4.109-11.952-4.547c-2.904-8.309,9.144-14.767,9.144-14.767c2.948-1.944,6.389-3.618,10.221-4.976
		c3.915-1.386,7.933-2.548,11.943-3.459c4.036-0.916,7.973-1.635,11.697-2.143c1.688-0.227,3.28-0.424,4.735-0.584
		c5.264-0.398,9.892-0.522,13.155-0.55c-1.517,1.258-2.38,2.185-2.515,2.332c-3.16,2.811-6.227,6.013-9.12,9.52
		c-2.879,3.495-5.649,7.311-8.23,11.335c-2.573,4.016-5.081,8.092-7.451,12.108c-2.36,3.997-4.682,8.029-6.899,11.989
		c-0.686,1.226-1.016,1.808-1.731,3.036c-9.316,0.374-17.756-0.845-20.453-1.07c-5.081-0.421-30.547-4.154-46.395,6.202
		c0,0-23.027,13.146-16.987,36.509c5.217,20.181,34.227,17.883,45.901,11.159c0,0,21.454-9.793,39.278-36.93
		c0.77-1.323,3.138-5.422,6.146-10.623c4.349,0.61,9.046-0.704,13.241-2.657c-0.09,0.675-0.142,1.362-0.138,2.05
		c0.026,2.962,0.935,5.306,2.707,6.963c0.352,0.329,0.735,0.628,1.144,0.893c1.636,1.063,3.728,1.601,6.216,1.597
		c2.376-0.003,4.835-0.447,7.306-1.322c2.415-0.856,4.84-2.031,7.204-3.494c1.31-0.807,2.599-1.692,3.863-2.631
		c-0.943,1.506-1.893,3.016-2.83,4.516c-0.27,0.43-0.279,0.969-0.034,1.409c0.112,0.202,0.271,0.367,0.457,0.488
		c0.225,0.145,0.488,0.227,0.764,0.225l6.401-0.006c0.562-0.002,1.07-0.338,1.287-0.856c1.018-2.434,2.226-4.834,3.595-7.137
		c1.356-2.284,2.673-4.135,3.915-5.509c3.566-4.042,6.976-7.584,10.146-10.543c1.986-1.854,3.883-3.496,5.672-4.907
		c-0.033,0.351-0.051,0.709-0.05,1.072c0.004,2.673,0.788,4.812,2.331,6.357c0.387,0.386,0.81,0.729,1.257,1.018
		c1.342,0.873,2.962,1.314,4.808,1.312c1.111-0.002,2.206-0.181,3.268-0.512c-0.135,0.214-0.276,0.434-0.412,0.649
		c-3.538,5.6-7.109,11.285-10.618,16.903c-0.267,0.429-0.28,0.968-0.033,1.409c0.11,0.201,0.271,0.366,0.456,0.487
		c0.224,0.145,0.487,0.226,0.765,0.226l6.399-0.007c0.562-0.001,1.069-0.338,1.287-0.855c1.02-2.435,2.228-4.836,3.598-7.138
		c1.354-2.283,2.67-4.136,3.915-5.51c3.564-4.041,6.974-7.583,10.143-10.542c1.988-1.855,3.887-3.495,5.672-4.905
		c-0.031,0.351-0.05,0.708-0.05,1.07c0.004,2.673,0.789,4.812,2.334,6.356c0.387,0.388,0.808,0.729,1.257,1.021
		c0.963,0.624,2.066,1.023,3.294,1.2l-0.011,0.01c0.49,0.072,0.996,0.111,1.523,0.11c0.836,0,1.66-0.108,2.472-0.296
		c-0.234,0.332-0.46,0.658-0.682,0.976l0.01-0.001c-0.644,0.928-1.237,1.793-1.771,2.589c-1.538,2.285-2.684,4.229-3.398,5.774
		c-0.771,1.658-1.16,3.268-1.16,4.782c0.003,1.841,0.618,3.344,1.826,4.467c0.205,0.19,0.431,0.366,0.674,0.522
		c1.174,0.763,2.749,1.133,4.812,1.131c2.381-0.003,4.715-0.589,6.94-1.744c2.115-1.096,4.136-2.453,6.011-4.028
		c0.132-0.11,0.262-0.219,0.391-0.329c-1.463,2.332-3.021,4.722-4.652,7.134c-2.124,3.137-6.703,9.392-9.098,12.356
		c-2.369,2.927-4.881,5.584-7.466,7.893c-2.553,2.281-5.246,4.141-8.01,5.531c0,0-6.208,2.883-12.061,1.422
		c0,0-7.095-1.521-7.063-8.327c0.03-6.401,6.647-7.862,6.647-7.862c1.688-0.367,2.002-1.129,1.862-1.933
		c-0.182-1.024-2.171-1.108-2.171-1.108c-3.492,0.006-6.552,0.748-9.017,2.631c0,0-7.304,5.563-2.706,14.295
		c4.162,7.904,16.039,7.266,16.039,7.266c4.98-0.005,9.563-1.357,13.539-3.253c3.91-1.864,7.547-4.303,10.812-7.246
		c3.233-2.917,6.241-6.245,8.938-9.894l32.079-48.118C249.783,40.831,249.81,40.792,249.837,40.751"/>
	<path fill="#fff" d="M299.947,46.714c-0.094-0.325-0.302-0.603-0.582-0.786c-0.042-0.028-0.087-0.054-0.134-0.078l-0.594-0.294
		c-0.639-0.321-1.418-0.107-1.803,0.495c-1.729,2.706-3.78,5.504-6.095,8.315c-2.296,2.791-4.839,5.396-7.555,7.74
		c-2.691,2.322-5.631,4.325-8.736,5.949c-0.483,0.254-0.971,0.492-1.462,0.716c0.733-0.874,1.352-1.823,1.838-2.83
		c0.646-1.341,0.973-2.755,0.97-4.21c0-1.859-0.277-3.578-0.824-5.103c-0.504-1.411-1.065-2.806-1.67-4.148
		c-0.007-0.018-0.017-0.037-0.023-0.054c-0.635-1.261-1.194-2.544-1.669-3.812c-0.434-1.154-0.654-2.387-0.656-3.664
		c-0.001-1.334,0.349-2.424,1.072-3.333c0.645-0.81,1.671-1.205,3.14-1.207c0.826-0.001,1.504,0.164,2.005,0.491
		c0.169,0.109,0.325,0.241,0.464,0.392c0.582,0.627,0.865,1.402,0.865,2.365c0.002,0.722-0.13,1.541-0.386,2.43
		c-0.266,0.922-0.572,1.708-0.916,2.341c-0.233,0.431-0.223,0.953,0.028,1.373c0.11,0.184,0.263,0.337,0.437,0.45
		c0.224,0.146,0.488,0.226,0.764,0.226c1.832-0.001,3.52-0.472,5.016-1.397c1.178-0.73,2.577-2.175,2.573-4.937
		c-0.002-2.342-1.058-4.322-3.058-5.722c-0.09-0.063-0.183-0.124-0.274-0.185c-1.833-1.189-4.167-1.793-6.932-1.79
		c-1.584,0.002-3.122,0.243-4.568,0.717c-1.461,0.477-2.781,1.169-3.917,2.055c-1.172,0.91-2.111,2.047-2.793,3.379
		c-0.687,1.348-1.037,2.873-1.034,4.532c0.004,1.277,0.263,2.647,0.775,4.072c0.463,1.297,0.969,2.625,1.5,3.945
		c0.509,1.276,0.98,2.589,1.397,3.901c0.382,1.208,0.576,2.381,0.58,3.483c0.002,1.052-0.147,2.124-0.439,3.186
		c-0.278,1.006-0.71,1.892-1.283,2.632c-0.567,0.735-1.283,1.344-2.126,1.807c-0.805,0.443-1.787,0.668-2.918,0.672
		c-1.877,0-3.519-0.473-5.02-1.447l-0.068-0.046c-1.358-0.895-1.991-2.172-1.992-4.023c0-0.556,0.083-1.114,0.248-1.658
		c0.035,0.035,0.073,0.071,0.112,0.107c0.143,0.131,0.298,0.252,0.461,0.358c0.617,0.401,1.363,0.604,2.214,0.604
		c1.74-0.003,2.707-0.864,3.211-1.589c0.623-0.894,0.938-1.959,0.936-3.163c-0.001-1.775-0.799-2.778-1.466-3.306
		c-0.109-0.088-0.221-0.168-0.338-0.244c-0.816-0.531-1.808-0.797-2.944-0.796c-2.336,0.003-4.228,0.878-5.612,2.599
		c-1.314,1.631-1.979,3.485-1.978,5.514c0.004,1.859,0.37,3.515,1.095,4.924c0.717,1.395,1.675,2.562,2.85,3.472
		c0.236,0.183,0.485,0.359,0.739,0.523c0.982,0.64,2.102,1.14,3.329,1.489c1.496,0.428,3.119,0.644,4.816,0.642
		c4.304-0.005,8.412-0.828,12.214-2.446c3.74-1.593,7.247-3.707,10.419-6.285c3.135-2.549,6.062-5.457,8.699-8.644
		c2.615-3.16,4.95-6.387,6.942-9.591C299.997,47.49,300.053,47.088,299.947,46.714"/>
	<path fill="#fff" d="M261.982,29.482c0.033,0.021,0.115,0.071,0.15,0.091c0.58,0.318,1.24,0.369,1.851,0.138c0.4-0.149,0.745-0.386,1.028-0.704
		c0.132-0.149,0.255-0.304,0.376-0.475c0.099-0.138,0.171-0.247,0.216-0.326l4.543-6.688c0.162-0.224,0.362-0.529,0.586-0.893
		c0.271-0.443,0.481-0.914,0.63-1.398c0.183-0.606,0.224-1.202,0.121-1.777c-0.093-0.524-0.392-1.269-1.277-1.844
		c-0.072-0.047-0.15-0.093-0.23-0.14c-1.001-0.552-1.867-0.429-2.416-0.23c-0.58,0.212-1.095,0.569-1.523,1.056
		c-0.329,0.376-0.616,0.804-0.855,1.274c-0.19,0.376-0.344,0.709-0.438,0.94l-3.303,7.422c-0.035,0.066-0.092,0.187-0.154,0.341
		c-0.077,0.179-0.146,0.369-0.202,0.563c-0.126,0.408-0.146,0.83-0.061,1.245C261.14,28.655,261.48,29.156,261.982,29.482"/>
</g>
<path fill="#fff" d="M232.958,124.7l1.455,13.871h-2.91L232.958,124.7z M230.048,121.439l-2.692,25.353h3.273l0.51-4.962h3.64l0.509,4.962h3.202
	l-2.621-25.353H230.048z"/>
<g>
	<path fill="#fff" d="M246.969,132.74h-2.533v-8.04h2.533V132.74z M249.12,134.188c0.653-0.184,1.122-0.871,1.122-1.774v-8.8
		c0-1.158-0.945-2.173-2.183-2.173h-6.899v25.352h3.274l0.001-10.791h3.313v10.791h3.275v-10.487
		C251.024,135.237,250.189,134.324,249.12,134.188"/>
	<path fill="#fff" d="M221.579,143.532h-3.315l0.001-8.184h3.314V143.532z M218.265,124.701h2.533v7.388h-2.533V124.701z M222.949,133.535
		c0.653-0.183,1.123-0.87,1.123-1.773v-8.147c0-1.159-0.946-2.173-2.183-2.173h-6.9v25.351h2.476h0.799h4.63v-0.011
		c1.097-0.112,1.96-1.04,1.96-2.125v-9.003C224.854,134.586,224.019,133.674,222.949,133.535"/>
	<path fill="#fff" d="M50.939,5.302H2.062C0.922,5.302,0,4.411,0,3.312c0-1.1,0.922-1.991,2.061-1.991h48.878C52.078,1.321,53,2.212,53,3.312
		C53,4.411,52.078,5.302,50.939,5.302"/>
	<path fill="#fff" d="M297.939,5.302H179.062c-1.139,0-2.061-0.891-2.061-1.99c0-1.1,0.922-1.991,2.061-1.991h118.878
		c1.138,0,2.061,0.891,2.061,1.991C300,4.411,299.077,5.302,297.939,5.302"/>
</g>
</svg>
